<svg width="1920" height="1080" viewBox="0 0 1920 1080" fill="none" xmlns="http://www.w3.org/2000/svg">
<rect width="1920" height="1080" fill="#1E1E1E"/>
<rect width="1920" height="1080" fill="white"/>
<path d="M875.509 259.304C879.306 259.304 882.485 259.667 885.045 260.392C887.647 261.117 889.589 262.312 890.869 263.976C892.191 265.64 892.853 267.859 892.853 270.632C892.853 272.424 892.511 274.024 891.829 275.432C891.189 276.797 890.207 277.949 888.885 278.888C887.605 279.784 886.026 280.403 884.149 280.744V281.064C886.069 281.363 887.797 281.917 889.333 282.728C890.911 283.539 892.149 284.691 893.045 286.184C893.941 287.677 894.389 289.619 894.389 292.008C894.389 294.781 893.749 297.149 892.469 299.112C891.189 301.032 889.354 302.504 886.965 303.528C884.618 304.509 881.802 305 878.517 305H862.453V259.304H875.509ZM876.661 278.76C880.586 278.76 883.274 278.141 884.725 276.904C886.175 275.624 886.901 273.747 886.901 271.272C886.901 268.755 886.005 266.963 884.213 265.896C882.463 264.787 879.647 264.232 875.765 264.232H868.213V278.76H876.661ZM868.213 283.56V300.136H877.429C881.482 300.136 884.298 299.347 885.877 297.768C887.455 296.189 888.245 294.12 888.245 291.56C888.245 289.939 887.882 288.531 887.157 287.336C886.474 286.141 885.301 285.224 883.637 284.584C882.015 283.901 879.797 283.56 876.981 283.56H868.213ZM911.438 287.464L899.598 270.696H905.998L914.83 283.624L923.598 270.696H929.934L918.094 287.464L930.574 305H924.174L914.83 291.304L905.358 305H899.022L911.438 287.464ZM965.759 287.784C965.759 290.643 965.375 293.181 964.607 295.4C963.881 297.576 962.815 299.432 961.407 300.968C960.041 302.504 958.356 303.677 956.351 304.488C954.388 305.256 952.191 305.64 949.759 305.64C947.497 305.64 945.407 305.256 943.487 304.488C941.567 303.677 939.903 302.504 938.495 300.968C937.087 299.432 935.977 297.576 935.167 295.4C934.399 293.181 934.015 290.643 934.015 287.784C934.015 283.987 934.655 280.787 935.935 278.184C937.215 275.539 939.049 273.533 941.439 272.168C943.828 270.76 946.665 270.056 949.951 270.056C953.065 270.056 955.796 270.76 958.143 272.168C960.532 273.533 962.388 275.539 963.711 278.184C965.076 280.787 965.759 283.987 965.759 287.784ZM939.839 287.784C939.839 290.472 940.18 292.819 940.863 294.824C941.588 296.787 942.697 298.301 944.191 299.368C945.684 300.435 947.583 300.968 949.887 300.968C952.191 300.968 954.089 300.435 955.583 299.368C957.076 298.301 958.164 296.787 958.847 294.824C959.572 292.819 959.935 290.472 959.935 287.784C959.935 285.053 959.572 282.728 958.847 280.808C958.121 278.888 957.012 277.416 955.519 276.392C954.068 275.325 952.169 274.792 949.823 274.792C946.324 274.792 943.785 275.944 942.207 278.248C940.628 280.552 939.839 283.731 939.839 287.784ZM1000.16 270.696V300.264H1005.15V316.904H999.709V305H975.837V316.904H970.461V300.264H973.213C975.175 297.533 976.797 294.568 978.077 291.368C979.399 288.125 980.381 284.755 981.021 281.256C981.703 277.715 982.066 274.195 982.109 270.696H1000.16ZM987.101 275.112C986.93 278.013 986.482 281.021 985.757 284.136C985.031 287.208 984.093 290.152 982.941 292.968C981.831 295.784 980.53 298.216 979.037 300.264H994.717V275.112H987.101Z" fill="black"/>
<rect x="698.099" y="353" width="490" height="75.9118" rx="20" transform="rotate(0.0638818 698.099 353)" fill="#E0E0E0"/>
<path d="M715.04 369.827L716.72 369.829L716.711 377.669C716.711 378.002 716.704 378.369 716.69 378.769C716.69 379.156 716.683 379.542 716.669 379.929C716.655 380.316 716.635 380.662 716.608 380.969C716.594 381.262 716.58 381.489 716.567 381.649L716.647 381.649L724.52 369.838L726.52 369.84L726.504 384.12L724.824 384.118L724.833 376.358C724.833 375.998 724.84 375.611 724.854 375.198C724.868 374.771 724.882 374.365 724.895 373.978C724.922 373.578 724.943 373.225 724.957 372.918C724.97 372.612 724.984 372.385 724.997 372.238L724.917 372.238L717.024 384.109L715.024 384.107L715.04 369.827ZM741.628 373.417L741.616 384.137L740.036 384.135L740.043 377.295C740.044 377.015 740.051 376.722 740.064 376.415C740.091 376.108 740.118 375.808 740.145 375.515L740.085 375.515L736.576 384.131L735.096 384.13L731.705 375.506L731.645 375.506C731.672 375.799 731.685 376.099 731.684 376.406C731.697 376.712 731.704 377.026 731.703 377.346L731.696 384.126L730.116 384.124L730.128 373.404L732.468 373.407L735.838 382.03L739.288 373.414L741.628 373.417ZM745.698 384.141L743.658 384.139L746.723 379.642C746.309 379.535 745.909 379.368 745.523 379.141C745.137 378.901 744.824 378.574 744.584 378.16C744.345 377.733 744.225 377.206 744.226 376.58C744.227 375.553 744.575 374.773 745.269 374.241C745.962 373.695 746.883 373.423 748.029 373.424L752.829 373.429L752.818 384.149L751.058 384.147L751.062 379.887L748.462 379.884L745.698 384.141ZM745.926 376.602C745.925 377.215 746.151 377.675 746.604 377.982C747.071 378.276 747.717 378.424 748.544 378.424L751.064 378.427L751.068 374.887L748.208 374.884C747.394 374.883 746.808 375.043 746.447 375.362C746.1 375.682 745.926 376.095 745.926 376.602ZM770.281 373.449L770.269 384.169L768.509 384.167L768.52 374.947L762.98 374.941L762.969 384.161L761.209 384.159L761.221 373.439L770.281 373.449ZM783.016 378.803C783.015 379.696 782.894 380.489 782.653 381.183C782.426 381.862 782.092 382.442 781.651 382.921C781.224 383.401 780.697 383.767 780.07 384.02C779.456 384.259 778.77 384.378 778.01 384.377C777.303 384.377 776.65 384.256 776.05 384.015C775.45 383.761 774.931 383.394 774.491 382.913C774.052 382.433 773.706 381.853 773.453 381.172C773.214 380.479 773.095 379.685 773.096 378.792C773.097 377.605 773.298 376.605 773.699 375.793C774.1 374.966 774.674 374.34 775.421 373.914C776.168 373.475 777.055 373.256 778.082 373.257C779.055 373.259 779.908 373.479 780.641 373.92C781.387 374.348 781.967 374.975 782.379 375.802C782.805 376.616 783.017 377.616 783.016 378.803ZM774.916 378.794C774.915 379.634 775.021 380.367 775.233 380.994C775.459 381.608 775.805 382.082 776.272 382.415C776.738 382.749 777.331 382.917 778.051 382.917C778.771 382.918 779.365 382.752 779.832 382.419C780.299 382.087 780.639 381.614 780.853 381.001C781.081 380.374 781.195 379.641 781.196 378.801C781.197 377.948 781.084 377.221 780.858 376.621C780.632 376.02 780.286 375.56 779.82 375.239C779.367 374.906 778.774 374.738 778.04 374.737C776.947 374.736 776.153 375.095 775.659 375.815C775.165 376.534 774.917 377.527 774.916 378.794ZM793.959 384.195L792.179 384.193L792.19 374.933L789.03 374.93C788.894 376.623 788.726 378.069 788.525 379.269C788.323 380.456 788.069 381.422 787.761 382.168C787.454 382.915 787.087 383.461 786.66 383.807C786.233 384.153 785.732 384.326 785.159 384.325C784.986 384.325 784.812 384.312 784.639 384.285C784.479 384.271 784.346 384.238 784.239 384.184L784.241 382.864C784.321 382.891 784.407 382.911 784.501 382.925C784.594 382.938 784.687 382.945 784.781 382.945C785.074 382.945 785.341 382.826 785.581 382.586C785.821 382.346 786.035 381.98 786.222 381.487C786.423 380.993 786.603 380.374 786.764 379.627C786.925 378.867 787.066 377.974 787.187 376.948C787.308 375.921 787.416 374.761 787.511 373.468L793.971 373.475L793.959 384.195ZM802.309 377.884C803.242 377.885 804.015 378 804.628 378.227C805.241 378.454 805.701 378.795 806.007 379.249C806.327 379.689 806.486 380.249 806.485 380.929C806.485 381.596 806.331 382.176 806.023 382.669C805.73 383.162 805.269 383.541 804.642 383.807C804.015 384.073 803.208 384.205 802.222 384.204L797.362 384.199L797.374 373.479L799.134 373.481L799.129 377.881L802.309 377.884ZM804.725 381.027C804.726 380.374 804.493 379.934 804.027 379.706C803.574 379.466 802.934 379.345 802.107 379.344L799.127 379.341L799.123 382.781L802.143 382.784C802.89 382.785 803.503 382.652 803.984 382.386C804.477 382.12 804.725 381.667 804.725 381.027ZM812.069 373.295C812.882 373.296 813.589 373.41 814.188 373.638C814.788 373.852 815.255 374.172 815.587 374.599C815.92 375.013 816.086 375.52 816.086 376.12C816.085 376.773 815.904 377.293 815.544 377.679C815.184 378.052 814.69 378.325 814.063 378.498L814.063 378.578C814.49 378.698 814.883 378.865 815.242 379.079C815.602 379.293 815.889 379.573 816.101 379.92C816.328 380.267 816.441 380.714 816.44 381.26C816.439 381.847 816.272 382.38 815.938 382.86C815.618 383.339 815.117 383.719 814.437 383.998C813.77 384.277 812.91 384.416 811.856 384.415C811.35 384.415 810.863 384.387 810.397 384.333C809.943 384.28 809.53 384.199 809.157 384.092C808.797 383.985 808.477 383.858 808.197 383.711L808.199 382.131C808.652 382.345 809.185 382.539 809.798 382.713C810.425 382.887 811.105 382.974 811.838 382.975C812.371 382.976 812.851 382.916 813.278 382.797C813.718 382.677 814.065 382.491 814.319 382.238C814.573 381.971 814.7 381.612 814.7 381.158C814.701 380.745 814.588 380.411 814.361 380.158C814.135 379.891 813.795 379.691 813.342 379.557C812.902 379.423 812.335 379.356 811.642 379.355L810.202 379.353L810.204 377.913L811.364 377.915C812.284 377.916 813.017 377.796 813.564 377.557C814.124 377.304 814.405 376.878 814.406 376.278C814.406 375.771 814.193 375.391 813.767 375.137C813.354 374.883 812.754 374.756 811.967 374.755C811.381 374.755 810.86 374.814 810.407 374.933C809.967 375.04 809.48 375.206 808.946 375.432L808.328 374.031C808.902 373.778 809.502 373.592 810.129 373.473C810.755 373.354 811.402 373.295 812.069 373.295ZM828.367 378.853C828.366 379.747 828.245 380.54 828.005 381.233C827.777 381.913 827.443 382.492 827.003 382.972C826.576 383.451 826.048 383.818 825.422 384.07C824.808 384.31 824.121 384.429 823.361 384.428C822.654 384.427 822.001 384.306 821.402 384.066C820.802 383.812 820.282 383.444 819.843 382.964C819.403 382.484 819.057 381.903 818.805 381.223C818.565 380.529 818.446 379.736 818.447 378.842C818.449 377.656 818.65 376.656 819.051 375.843C819.452 375.017 820.026 374.391 820.773 373.965C821.52 373.526 822.407 373.307 823.434 373.308C824.407 373.309 825.26 373.53 825.993 373.971C826.739 374.398 827.318 375.026 827.731 375.853C828.156 376.667 828.369 377.667 828.367 378.853ZM820.267 378.844C820.266 379.684 820.372 380.418 820.585 381.045C820.811 381.658 821.157 382.132 821.623 382.466C822.09 382.8 822.683 382.967 823.403 382.968C824.123 382.969 824.716 382.803 825.183 382.47C825.65 382.137 825.991 381.664 826.205 381.051C826.432 380.425 826.546 379.691 826.547 378.851C826.548 377.998 826.436 377.271 826.21 376.671C825.984 376.071 825.638 375.61 825.171 375.29C824.718 374.956 824.125 374.789 823.392 374.788C822.299 374.787 821.505 375.146 821.011 375.865C820.517 376.585 820.269 377.578 820.267 378.844ZM839.78 376.226C839.779 376.893 839.578 377.413 839.178 377.786C838.778 378.158 838.264 378.411 837.637 378.544L837.637 378.624C838.304 378.718 838.883 378.959 839.376 379.346C839.869 379.72 840.115 380.307 840.114 381.107C840.114 381.56 840.027 381.98 839.853 382.366C839.692 382.753 839.439 383.086 839.092 383.365C838.745 383.645 838.298 383.865 837.751 384.024C837.204 384.17 836.544 384.243 835.771 384.242L831.151 384.237L831.163 373.517L835.763 373.522C836.523 373.523 837.203 373.61 837.802 373.784C838.416 373.945 838.895 374.225 839.241 374.626C839.601 375.013 839.78 375.546 839.78 376.226ZM838.294 381.105C838.295 380.491 838.062 380.051 837.596 379.784C837.129 379.517 836.443 379.382 835.536 379.381L832.916 379.379L832.912 382.819L835.572 382.822C836.452 382.823 837.126 382.697 837.593 382.444C838.06 382.178 838.294 381.731 838.294 381.105ZM837.999 376.444C838 375.938 837.814 375.571 837.441 375.344C837.081 375.103 836.488 374.983 835.661 374.982L832.921 374.979L832.918 377.919L835.338 377.921C836.204 377.922 836.865 377.803 837.318 377.563C837.772 377.324 837.999 376.951 837.999 376.444ZM846.746 373.354C848.053 373.355 849.019 373.643 849.645 374.217C850.271 374.791 850.584 375.705 850.582 376.958L850.574 384.258L849.294 384.257L848.956 382.736L848.876 382.736C848.569 383.123 848.248 383.449 847.915 383.715C847.594 383.968 847.221 384.155 846.794 384.274C846.381 384.394 845.874 384.453 845.274 384.452C844.634 384.452 844.054 384.338 843.534 384.11C843.028 383.883 842.628 383.536 842.335 383.069C842.043 382.589 841.897 381.989 841.897 381.269C841.899 380.202 842.32 379.382 843.16 378.81C844.001 378.224 845.295 377.906 847.041 377.854L848.861 377.796L848.862 377.156C848.863 376.263 848.67 375.643 848.284 375.296C847.898 374.949 847.351 374.775 846.645 374.774C846.085 374.773 845.551 374.859 845.044 375.032C844.538 375.192 844.064 375.378 843.624 375.591L843.085 374.27C843.552 374.017 844.106 373.804 844.746 373.632C845.386 373.446 846.053 373.353 846.746 373.354ZM847.26 379.075C845.927 379.126 845 379.339 844.479 379.711C843.972 380.084 843.718 380.611 843.717 381.291C843.717 381.891 843.896 382.331 844.256 382.611C844.629 382.892 845.102 383.032 845.676 383.033C846.582 383.034 847.336 382.788 847.936 382.295C848.537 381.789 848.838 381.016 848.839 379.976L848.84 379.016L847.26 379.075ZM861.295 375.03L857.795 375.026L857.785 384.266L856.045 384.264L856.055 375.024L852.595 375.021L852.597 373.541L861.297 373.55L861.295 375.03ZM867.354 373.357C868.274 373.358 869.06 373.559 869.713 373.96C870.379 374.36 870.885 374.928 871.231 375.661C871.59 376.382 871.769 377.229 871.768 378.202L871.767 379.262L864.427 379.254C864.452 380.467 864.758 381.394 865.344 382.035C865.943 382.662 866.776 382.976 867.843 382.978C868.523 382.978 869.123 382.919 869.643 382.8C870.177 382.667 870.723 382.481 871.284 382.241L871.282 383.781C870.735 384.021 870.195 384.193 869.661 384.3C869.128 384.419 868.495 384.478 867.761 384.477C866.748 384.476 865.848 384.269 865.062 383.854C864.289 383.44 863.683 382.826 863.244 382.012C862.818 381.185 862.606 380.178 862.607 378.992C862.609 377.818 862.803 376.812 863.191 375.972C863.592 375.133 864.146 374.487 864.853 374.034C865.573 373.582 866.407 373.356 867.354 373.357ZM867.332 374.797C866.492 374.796 865.825 375.069 865.331 375.615C864.851 376.148 864.563 376.894 864.469 377.854L869.929 377.86C869.929 377.246 869.837 376.713 869.65 376.26C869.464 375.806 869.178 375.452 868.792 375.199C868.419 374.931 867.932 374.798 867.332 374.797ZM882.651 384.294L880.871 384.292L880.881 375.032L877.721 375.029C877.586 376.722 877.417 378.168 877.216 379.368C877.015 380.554 876.76 381.521 876.453 382.267C876.145 383.013 875.778 383.56 875.351 383.906C874.924 384.252 874.424 384.425 873.85 384.424C873.677 384.424 873.504 384.41 873.33 384.384C873.17 384.37 873.037 384.337 872.931 384.283L872.932 382.963C873.012 382.99 873.099 383.01 873.192 383.023C873.285 383.037 873.379 383.044 873.472 383.044C873.765 383.044 874.032 382.924 874.272 382.685C874.513 382.445 874.726 382.079 874.914 381.585C875.114 381.092 875.295 380.472 875.456 379.726C875.616 378.966 875.757 378.073 875.879 377.046C876 376.02 876.108 374.86 876.203 373.567L882.662 373.574L882.651 384.294ZM886.713 384.299L884.673 384.296L887.738 379.8C887.325 379.693 886.925 379.525 886.539 379.298C886.152 379.058 885.839 378.731 885.6 378.317C885.36 377.89 885.241 377.364 885.241 376.737C885.243 375.71 885.59 374.931 886.284 374.398C886.978 373.852 887.898 373.58 889.045 373.581L893.845 373.586L893.833 384.306L892.073 384.305L892.078 380.045L889.478 380.042L886.713 384.299ZM886.941 376.759C886.941 377.372 887.167 377.832 887.62 378.14C888.086 378.433 888.733 378.581 889.559 378.582L892.079 378.585L892.083 375.045L889.223 375.041C888.41 375.04 887.823 375.2 887.463 375.519C887.116 375.839 886.942 376.252 886.941 376.759Z" fill="black"/>
<rect x="698" y="685" width="490" height="89" fill="#2C59FB"/>
<path d="M902.906 715.01C904.983 715.01 906.721 715.208 908.121 715.605C909.544 716.002 910.606 716.655 911.306 717.565C912.029 718.475 912.391 719.688 912.391 721.205C912.391 722.185 912.204 723.06 911.831 723.83C911.481 724.577 910.944 725.207 910.221 725.72C909.521 726.21 908.658 726.548 907.631 726.735V726.91C908.681 727.073 909.626 727.377 910.466 727.82C911.329 728.263 912.006 728.893 912.496 729.71C912.986 730.527 913.231 731.588 913.231 732.895C913.231 734.412 912.881 735.707 912.181 736.78C911.481 737.83 910.478 738.635 909.171 739.195C907.888 739.732 906.348 740 904.551 740H895.766V715.01H902.906ZM903.536 725.65C905.683 725.65 907.153 725.312 907.946 724.635C908.739 723.935 909.136 722.908 909.136 721.555C909.136 720.178 908.646 719.198 907.666 718.615C906.709 718.008 905.169 717.705 903.046 717.705H898.916V725.65H903.536ZM898.916 728.275V737.34H903.956C906.173 737.34 907.713 736.908 908.576 736.045C909.439 735.182 909.871 734.05 909.871 732.65C909.871 731.763 909.673 730.993 909.276 730.34C908.903 729.687 908.261 729.185 907.351 728.835C906.464 728.462 905.251 728.275 903.711 728.275H898.916ZM934.42 730.585C934.42 732.148 934.21 733.537 933.79 734.75C933.393 735.94 932.81 736.955 932.04 737.795C931.293 738.635 930.371 739.277 929.275 739.72C928.201 740.14 927 740.35 925.67 740.35C924.433 740.35 923.29 740.14 922.24 739.72C921.19 739.277 920.28 738.635 919.51 737.795C918.74 736.955 918.133 735.94 917.69 734.75C917.27 733.537 917.06 732.148 917.06 730.585C917.06 728.508 917.41 726.758 918.11 725.335C918.81 723.888 919.813 722.792 921.12 722.045C922.426 721.275 923.978 720.89 925.775 720.89C927.478 720.89 928.971 721.275 930.255 722.045C931.561 722.792 932.576 723.888 933.3 725.335C934.046 726.758 934.42 728.508 934.42 730.585ZM920.245 730.585C920.245 732.055 920.431 733.338 920.805 734.435C921.201 735.508 921.808 736.337 922.625 736.92C923.441 737.503 924.48 737.795 925.74 737.795C927 737.795 928.038 737.503 928.855 736.92C929.671 736.337 930.266 735.508 930.64 734.435C931.036 733.338 931.235 732.055 931.235 730.585C931.235 729.092 931.036 727.82 930.64 726.77C930.243 725.72 929.636 724.915 928.82 724.355C928.026 723.772 926.988 723.48 925.705 723.48C923.791 723.48 922.403 724.11 921.54 725.37C920.676 726.63 920.245 728.368 920.245 730.585ZM954.491 713.47C954.398 714.637 954.106 715.617 953.616 716.41C953.15 717.203 952.45 717.798 951.516 718.195C950.583 718.592 949.37 718.79 947.876 718.79C946.36 718.79 945.135 718.592 944.201 718.195C943.291 717.798 942.626 717.215 942.206 716.445C941.786 715.652 941.53 714.66 941.436 713.47H944.306C944.423 714.73 944.75 715.582 945.286 716.025C945.846 716.445 946.733 716.655 947.946 716.655C949.02 716.655 949.86 716.433 950.466 715.99C951.096 715.523 951.47 714.683 951.586 713.47H954.491ZM942.206 732.685C942.206 732.895 942.195 733.198 942.171 733.595C942.171 733.968 942.16 734.377 942.136 734.82C942.113 735.24 942.09 735.648 942.066 736.045C942.043 736.418 942.02 736.722 941.996 736.955L952.041 721.24H955.821V740H952.951V728.94C952.951 728.567 952.951 728.077 952.951 727.47C952.975 726.863 952.998 726.268 953.021 725.685C953.045 725.078 953.068 724.623 953.091 724.32L943.116 740H939.301V721.24H942.206V732.685ZM974.741 723.83H968.616V740H965.571V723.83H959.516V721.24H974.741V723.83ZM981.342 732.685C981.342 732.895 981.33 733.198 981.307 733.595C981.307 733.968 981.295 734.377 981.272 734.82C981.249 735.24 981.225 735.648 981.202 736.045C981.179 736.418 981.155 736.722 981.132 736.955L991.177 721.24H994.957V740H992.087V728.94C992.087 728.567 992.087 728.077 992.087 727.47C992.11 726.863 992.134 726.268 992.157 725.685C992.18 725.078 992.204 724.623 992.227 724.32L982.252 740H978.437V721.24H981.342V732.685Z" fill="white"/>
<rect x="696.099" y="466" width="490" height="75.9118" rx="20" transform="rotate(0.0638818 696.099 466)" fill="#E0E0E0"/>
<path d="M713.005 497.107L713.02 482.827L723.74 482.839L723.725 497.119L721.945 497.117L721.959 484.417L714.819 484.409L714.805 497.109L713.005 497.107ZM731.466 486.228C732.772 486.229 733.739 486.517 734.365 487.091C734.991 487.665 735.303 488.579 735.302 489.832L735.293 497.132L734.013 497.131L733.675 495.61L733.595 495.61C733.288 495.996 732.968 496.323 732.634 496.589C732.314 496.842 731.94 497.028 731.513 497.148C731.1 497.267 730.593 497.327 729.993 497.326C729.353 497.325 728.773 497.211 728.254 496.984C727.747 496.757 727.348 496.41 727.055 495.943C726.762 495.462 726.616 494.862 726.617 494.142C726.618 493.076 727.039 492.256 727.88 491.684C728.72 491.098 730.014 490.779 731.761 490.728L733.581 490.67L733.581 490.03C733.582 489.137 733.39 488.516 733.003 488.169C732.617 487.822 732.071 487.648 731.364 487.648C730.804 487.647 730.271 487.733 729.764 487.906C729.257 488.065 728.783 488.251 728.343 488.464L727.805 487.144C728.272 486.891 728.825 486.678 729.465 486.505C730.106 486.319 730.772 486.227 731.466 486.228ZM731.979 491.948C730.646 492 729.719 492.212 729.199 492.585C728.691 492.958 728.438 493.484 728.437 494.164C728.436 494.764 728.616 495.205 728.975 495.485C729.348 495.765 729.821 495.906 730.395 495.906C731.301 495.908 732.055 495.662 732.656 495.169C733.256 494.663 733.557 493.89 733.558 492.85L733.559 491.89L731.979 491.948ZM743.717 486.221C745.037 486.223 746.096 486.684 746.895 487.605C747.707 488.526 748.112 489.913 748.11 491.766C748.109 492.98 747.921 494.006 747.547 494.846C747.186 495.672 746.672 496.298 746.005 496.724C745.351 497.137 744.578 497.342 743.684 497.341C743.138 497.341 742.651 497.267 742.224 497.12C741.798 496.973 741.431 496.785 741.125 496.558C740.832 496.318 740.579 496.058 740.366 495.778L740.246 495.777C740.272 496.004 740.299 496.291 740.325 496.638C740.351 496.984 740.364 497.284 740.364 497.538L740.359 501.938L738.599 501.936L738.616 486.416L740.056 486.417L740.295 487.878L740.375 487.878C740.588 487.571 740.842 487.291 741.136 487.038C741.443 486.785 741.803 486.586 742.216 486.44C742.643 486.293 743.143 486.221 743.717 486.221ZM743.395 487.701C742.675 487.7 742.095 487.84 741.654 488.119C741.214 488.385 740.894 488.792 740.693 489.338C740.492 489.884 740.385 490.578 740.371 491.418L740.37 491.758C740.369 492.638 740.462 493.384 740.648 493.998C740.834 494.611 741.147 495.078 741.586 495.399C742.039 495.719 742.652 495.88 743.426 495.881C744.079 495.882 744.613 495.702 745.026 495.343C745.453 494.983 745.767 494.497 745.968 493.884C746.182 493.257 746.29 492.544 746.29 491.744C746.292 490.518 746.053 489.537 745.574 488.803C745.108 488.07 744.382 487.702 743.395 487.701ZM760.235 491.78C760.234 492.673 760.113 493.466 759.872 494.159C759.645 494.839 759.311 495.419 758.87 495.898C758.443 496.378 757.916 496.744 757.289 496.996C756.676 497.236 755.989 497.355 755.229 497.354C754.522 497.353 753.869 497.233 753.269 496.992C752.67 496.738 752.15 496.371 751.71 495.89C751.271 495.41 750.925 494.829 750.672 494.149C750.433 493.455 750.314 492.662 750.315 491.769C750.316 490.582 750.518 489.582 750.918 488.769C751.319 487.943 751.893 487.317 752.641 486.891C753.388 486.452 754.275 486.233 755.301 486.234C756.275 486.235 757.128 486.456 757.861 486.897C758.607 487.325 759.186 487.952 759.598 488.779C760.024 489.593 760.236 490.593 760.235 491.78ZM752.135 491.771C752.134 492.611 752.24 493.344 752.453 493.971C752.679 494.585 753.025 495.058 753.491 495.392C753.957 495.726 754.55 495.893 755.27 495.894C755.99 495.895 756.584 495.729 757.051 495.396C757.518 495.063 757.859 494.59 758.073 493.977C758.3 493.351 758.414 492.618 758.415 491.778C758.416 490.924 758.304 490.198 758.078 489.597C757.852 488.997 757.505 488.537 757.039 488.216C756.586 487.882 755.993 487.715 755.26 487.714C754.166 487.713 753.373 488.072 752.878 488.792C752.384 489.511 752.136 490.504 752.135 491.771ZM771.178 497.172L769.398 497.17L769.409 487.91L766.249 487.906C766.114 489.6 765.945 491.046 765.744 492.246C765.543 493.432 765.288 494.399 764.981 495.145C764.673 495.891 764.306 496.438 763.879 496.784C763.452 497.13 762.952 497.303 762.378 497.302C762.205 497.302 762.032 497.288 761.858 497.262C761.698 497.248 761.565 497.215 761.458 497.161L761.46 495.841C761.54 495.868 761.627 495.888 761.72 495.901C761.813 495.915 761.906 495.922 762 495.922C762.293 495.922 762.56 495.802 762.8 495.563C763.04 495.323 763.254 494.956 763.441 494.463C763.642 493.97 763.823 493.35 763.984 492.604C764.144 491.844 764.285 490.951 764.407 489.924C764.528 488.898 764.636 487.738 764.73 486.445L771.19 486.452L771.178 497.172ZM779.528 490.861C780.461 490.862 781.235 490.977 781.848 491.204C782.461 491.431 782.92 491.772 783.226 492.225C783.546 492.666 783.705 493.226 783.705 493.906C783.704 494.573 783.55 495.152 783.243 495.645C782.949 496.138 782.488 496.518 781.861 496.784C781.234 497.05 780.428 497.182 779.441 497.181L774.581 497.176L774.593 486.456L776.353 486.458L776.348 490.858L779.528 490.861ZM781.944 494.004C781.945 493.351 781.712 492.91 781.246 492.683C780.793 492.443 780.153 492.322 779.326 492.321L776.346 492.318L776.343 495.758L779.363 495.761C780.109 495.762 780.723 495.629 781.203 495.363C781.697 495.097 781.944 494.644 781.944 494.004Z" fill="black"/>
<path d="M809.666 872.128C809.154 873.264 808.634 874.216 808.106 874.984C807.594 875.736 806.986 876.304 806.282 876.688C805.578 877.056 804.682 877.24 803.594 877.24C803.146 877.24 802.722 877.208 802.322 877.144C801.938 877.08 801.586 876.992 801.266 876.88V874.744C801.586 874.888 801.93 875.008 802.298 875.104C802.666 875.184 803.05 875.224 803.45 875.224C804.042 875.224 804.546 875.144 804.962 874.984C805.394 874.808 805.77 874.528 806.09 874.144C806.426 873.76 806.738 873.248 807.026 872.608L800.426 859.864H802.802L807.578 869.296C807.642 869.408 807.706 869.544 807.77 869.704C807.834 869.848 807.898 870 807.962 870.16C808.042 870.32 808.106 870.472 808.154 870.616H808.25C808.298 870.504 808.346 870.376 808.394 870.232C808.458 870.072 808.514 869.92 808.562 869.776C808.626 869.616 808.682 869.48 808.73 869.368L812.858 859.864H815.138L809.666 872.128ZM836.978 864.136V877H835.082V868.792C835.082 868.456 835.09 868.104 835.106 867.736C835.138 867.368 835.17 867.008 835.202 866.656H835.13L830.93 877H829.154L825.074 866.656H825.002C825.034 867.008 825.05 867.368 825.05 867.736C825.066 868.104 825.074 868.48 825.074 868.864V877H823.178V864.136H825.986L830.042 874.48L834.17 864.136H836.978ZM846.052 863.896C847.156 863.896 848.1 864.136 848.884 864.616C849.684 865.096 850.292 865.776 850.708 866.656C851.14 867.52 851.356 868.536 851.356 869.704V870.976H842.548C842.58 872.432 842.948 873.544 843.652 874.312C844.372 875.064 845.372 875.44 846.652 875.44C847.468 875.44 848.188 875.368 848.812 875.224C849.452 875.064 850.108 874.84 850.78 874.552V876.4C850.124 876.688 849.476 876.896 848.836 877.024C848.196 877.168 847.436 877.24 846.556 877.24C845.34 877.24 844.26 876.992 843.316 876.496C842.388 876 841.66 875.264 841.132 874.288C840.62 873.296 840.364 872.088 840.364 870.664C840.364 869.256 840.596 868.048 841.06 867.04C841.54 866.032 842.204 865.256 843.052 864.712C843.916 864.168 844.916 863.896 846.052 863.896ZM846.028 865.624C845.02 865.624 844.22 865.952 843.628 866.608C843.052 867.248 842.708 868.144 842.596 869.296H849.148C849.148 868.56 849.036 867.92 848.812 867.376C848.588 866.832 848.244 866.408 847.78 866.104C847.332 865.784 846.748 865.624 846.028 865.624ZM856.743 864.136V869.488H863.727V864.136H865.839V877H863.727V871.264H856.743V877H854.631V864.136H856.743ZM870.705 877H868.257L871.929 871.6C871.433 871.472 870.953 871.272 870.489 871C870.025 870.712 869.649 870.32 869.361 869.824C869.073 869.312 868.929 868.68 868.929 867.928C868.929 866.696 869.345 865.76 870.177 865.12C871.009 864.464 872.113 864.136 873.489 864.136H879.249V877H877.137V871.888H874.017L870.705 877ZM870.969 867.952C870.969 868.688 871.241 869.24 871.785 869.608C872.345 869.96 873.121 870.136 874.113 870.136H877.137V865.888H873.705C872.729 865.888 872.025 866.08 871.593 866.464C871.177 866.848 870.969 867.344 870.969 867.952ZM894.287 863.896C895.391 863.896 896.335 864.136 897.119 864.616C897.919 865.096 898.527 865.776 898.943 866.656C899.375 867.52 899.591 868.536 899.591 869.704V870.976H890.783C890.815 872.432 891.183 873.544 891.887 874.312C892.607 875.064 893.607 875.44 894.887 875.44C895.703 875.44 896.423 875.368 897.047 875.224C897.687 875.064 898.343 874.84 899.015 874.552V876.4C898.359 876.688 897.711 876.896 897.071 877.024C896.431 877.168 895.671 877.24 894.791 877.24C893.575 877.24 892.495 876.992 891.551 876.496C890.623 876 889.895 875.264 889.367 874.288C888.855 873.296 888.599 872.088 888.599 870.664C888.599 869.256 888.831 868.048 889.295 867.04C889.775 866.032 890.439 865.256 891.287 864.712C892.151 864.168 893.151 863.896 894.287 863.896ZM894.263 865.624C893.255 865.624 892.455 865.952 891.863 866.608C891.287 867.248 890.943 868.144 890.831 869.296H897.383C897.383 868.56 897.271 867.92 897.047 867.376C896.823 866.832 896.479 866.408 896.015 866.104C895.567 865.784 894.983 865.624 894.263 865.624ZM920.29 864.136V875.248H922.162V881.44H920.05V877H902.866V864.136H904.978V875.224H910.522V864.136H912.634V875.224H918.202V864.136H920.29ZM929.584 863.896C930.688 863.896 931.632 864.136 932.416 864.616C933.216 865.096 933.824 865.776 934.24 866.656C934.672 867.52 934.888 868.536 934.888 869.704V870.976H926.08C926.112 872.432 926.48 873.544 927.184 874.312C927.904 875.064 928.904 875.44 930.184 875.44C931 875.44 931.72 875.368 932.344 875.224C932.984 875.064 933.64 874.84 934.312 874.552V876.4C933.656 876.688 933.008 876.896 932.368 877.024C931.728 877.168 930.968 877.24 930.088 877.24C928.872 877.24 927.792 876.992 926.848 876.496C925.92 876 925.192 875.264 924.664 874.288C924.152 873.296 923.896 872.088 923.896 870.664C923.896 869.256 924.128 868.048 924.592 867.04C925.072 866.032 925.736 865.256 926.584 864.712C927.448 864.168 928.448 863.896 929.584 863.896ZM929.56 865.624C928.552 865.624 927.752 865.952 927.16 866.608C926.584 867.248 926.24 868.144 926.128 869.296H932.68C932.68 868.56 932.568 867.92 932.344 867.376C932.12 866.832 931.776 866.408 931.312 866.104C930.864 865.784 930.28 865.624 929.56 865.624Z" fill="black"/>
<path d="M946.275 864.136V869.488H953.259V864.136H955.371V877H953.259V871.264H946.275V877H944.163V864.136H946.275ZM964.412 863.896C965.516 863.896 966.46 864.136 967.244 864.616C968.044 865.096 968.652 865.776 969.068 866.656C969.5 867.52 969.716 868.536 969.716 869.704V870.976H960.908C960.94 872.432 961.308 873.544 962.012 874.312C962.732 875.064 963.732 875.44 965.012 875.44C965.828 875.44 966.548 875.368 967.172 875.224C967.812 875.064 968.468 874.84 969.14 874.552V876.4C968.484 876.688 967.836 876.896 967.196 877.024C966.556 877.168 965.796 877.24 964.916 877.24C963.7 877.24 962.62 876.992 961.676 876.496C960.748 876 960.02 875.264 959.492 874.288C958.98 873.296 958.724 872.088 958.724 870.664C958.724 869.256 958.956 868.048 959.42 867.04C959.9 866.032 960.564 865.256 961.412 864.712C962.276 864.168 963.276 863.896 964.412 863.896ZM964.388 865.624C963.38 865.624 962.58 865.952 961.988 866.608C961.412 867.248 961.068 868.144 960.956 869.296H967.508C967.508 868.56 967.396 867.92 967.172 867.376C966.948 866.832 966.604 866.408 966.14 866.104C965.692 865.784 965.108 865.624 964.388 865.624ZM981.871 865.912H977.671V877H975.583V865.912H971.431V864.136H981.871V865.912ZM995.277 863.92C996.845 863.92 998.005 864.264 998.757 864.952C999.509 865.64 999.885 866.736 999.885 868.24V877H998.349L997.941 875.176H997.845C997.477 875.64 997.093 876.032 996.693 876.352C996.309 876.656 995.861 876.88 995.349 877.024C994.853 877.168 994.245 877.24 993.525 877.24C992.757 877.24 992.061 877.104 991.437 876.832C990.829 876.56 990.349 876.144 989.997 875.584C989.645 875.008 989.469 874.288 989.469 873.424C989.469 872.144 989.973 871.16 990.981 870.472C991.989 869.768 993.541 869.384 995.637 869.32L997.821 869.248V868.48C997.821 867.408 997.589 866.664 997.125 866.248C996.661 865.832 996.005 865.624 995.157 865.624C994.485 865.624 993.845 865.728 993.237 865.936C992.629 866.128 992.061 866.352 991.533 866.608L990.885 865.024C991.445 864.72 992.109 864.464 992.877 864.256C993.645 864.032 994.445 863.92 995.277 863.92ZM995.901 870.784C994.301 870.848 993.189 871.104 992.565 871.552C991.957 872 991.653 872.632 991.653 873.448C991.653 874.168 991.869 874.696 992.301 875.032C992.749 875.368 993.317 875.536 994.005 875.536C995.093 875.536 995.997 875.24 996.717 874.648C997.437 874.04 997.797 873.112 997.797 871.864V870.712L995.901 870.784ZM1011.47 864.136H1013.77L1008.27 870.328L1014.23 877H1011.78L1005.97 870.472V877H1003.86V864.136H1005.97V870.376L1011.47 864.136ZM1024.17 864.136H1026.47L1020.98 870.328L1026.93 877H1024.48L1018.67 870.472V877H1016.56V864.136H1018.67V870.376L1024.17 864.136ZM1034.14 863.92C1035.7 863.92 1036.86 864.264 1037.62 864.952C1038.37 865.64 1038.74 866.736 1038.74 868.24V877H1037.21L1036.8 875.176H1036.7C1036.34 875.64 1035.95 876.032 1035.55 876.352C1035.17 876.656 1034.72 876.88 1034.21 877.024C1033.71 877.168 1033.1 877.24 1032.38 877.24C1031.62 877.24 1030.92 877.104 1030.3 876.832C1029.69 876.56 1029.21 876.144 1028.86 875.584C1028.5 875.008 1028.33 874.288 1028.33 873.424C1028.33 872.144 1028.83 871.16 1029.84 870.472C1030.85 869.768 1032.4 869.384 1034.5 869.32L1036.68 869.248V868.48C1036.68 867.408 1036.45 866.664 1035.98 866.248C1035.52 865.832 1034.86 865.624 1034.02 865.624C1033.34 865.624 1032.7 865.728 1032.1 865.936C1031.49 866.128 1030.92 866.352 1030.39 866.608L1029.74 865.024C1030.3 864.72 1030.97 864.464 1031.74 864.256C1032.5 864.032 1033.3 863.92 1034.14 863.92ZM1034.76 870.784C1033.16 870.848 1032.05 871.104 1031.42 871.552C1030.82 872 1030.51 872.632 1030.51 873.448C1030.51 874.168 1030.73 874.696 1031.16 875.032C1031.61 875.368 1032.18 875.536 1032.86 875.536C1033.95 875.536 1034.86 875.24 1035.58 874.648C1036.3 874.04 1036.66 873.112 1036.66 871.864V870.712L1034.76 870.784ZM1040.7 864.136H1042.96L1045.74 871.456C1045.9 871.888 1046.05 872.304 1046.17 872.704C1046.32 873.104 1046.45 873.496 1046.56 873.88C1046.67 874.248 1046.76 874.608 1046.82 874.96H1046.92C1047.01 874.56 1047.17 874.04 1047.37 873.4C1047.58 872.744 1047.8 872.088 1048.02 871.432L1050.64 864.136H1052.92L1047.37 878.776C1047.07 879.576 1046.71 880.272 1046.29 880.864C1045.89 881.472 1045.4 881.936 1044.81 882.256C1044.23 882.592 1043.53 882.76 1042.69 882.76C1042.31 882.76 1041.97 882.736 1041.69 882.688C1041.4 882.656 1041.15 882.616 1040.94 882.568V880.888C1041.12 880.92 1041.33 880.952 1041.57 880.984C1041.82 881.016 1042.09 881.032 1042.36 881.032C1042.85 881.032 1043.28 880.936 1043.63 880.744C1044 880.568 1044.31 880.304 1044.57 879.952C1044.82 879.616 1045.04 879.216 1045.21 878.752L1045.89 877.048L1040.7 864.136ZM1057.06 864.136V869.488H1064.05V864.136H1066.16V877H1064.05V871.264H1057.06V877H1054.95V864.136H1057.06ZM1079.11 865.912H1074.91V877H1072.82V865.912H1068.67V864.136H1079.11V865.912ZM1086.52 863.92C1088.09 863.92 1089.25 864.264 1090 864.952C1090.75 865.64 1091.13 866.736 1091.13 868.24V877H1089.59L1089.18 875.176H1089.09C1088.72 875.64 1088.33 876.032 1087.93 876.352C1087.55 876.656 1087.1 876.88 1086.59 877.024C1086.09 877.168 1085.49 877.24 1084.77 877.24C1084 877.24 1083.3 877.104 1082.68 876.832C1082.07 876.56 1081.59 876.144 1081.24 875.584C1080.89 875.008 1080.71 874.288 1080.71 873.424C1080.71 872.144 1081.21 871.16 1082.22 870.472C1083.23 869.768 1084.78 869.384 1086.88 869.32L1089.06 869.248V868.48C1089.06 867.408 1088.83 866.664 1088.37 866.248C1087.9 865.832 1087.25 865.624 1086.4 865.624C1085.73 865.624 1085.09 865.728 1084.48 865.936C1083.87 866.128 1083.3 866.352 1082.77 866.608L1082.13 865.024C1082.69 864.72 1083.35 864.464 1084.12 864.256C1084.89 864.032 1085.69 863.92 1086.52 863.92ZM1087.14 870.784C1085.54 870.848 1084.43 871.104 1083.81 871.552C1083.2 872 1082.89 872.632 1082.89 873.448C1082.89 874.168 1083.11 874.696 1083.54 875.032C1083.99 875.368 1084.56 875.536 1085.25 875.536C1086.33 875.536 1087.24 875.24 1087.96 874.648C1088.68 874.04 1089.04 873.112 1089.04 871.864V870.712L1087.14 870.784Z" fill="#B70F37"/>
<path d="M1001.46 564.872C1001.46 566.04 1001.09 566.968 1000.35 567.656C999.616 568.328 998.632 568.76 997.4 568.952V569.048C998.84 569.24 999.936 569.688 1000.69 570.392C1001.44 571.096 1001.82 572.016 1001.82 573.152C1001.82 574.16 1001.56 575.048 1001.05 575.816C1000.54 576.568 999.768 577.16 998.744 577.592C997.72 578.024 996.44 578.24 994.904 578.24C993.976 578.24 993.088 578.168 992.24 578.024C991.408 577.896 990.632 577.656 989.912 577.304V575.336C990.408 575.576 990.936 575.784 991.496 575.96C992.072 576.12 992.648 576.248 993.224 576.344C993.8 576.424 994.352 576.464 994.88 576.464C996.416 576.464 997.576 576.176 998.36 575.6C999.16 575.024 999.56 574.208 999.56 573.152C999.56 572.064 999.096 571.272 998.168 570.776C997.24 570.28 995.944 570.032 994.28 570.032H991.832V568.232H994.16C995.296 568.232 996.232 568.104 996.968 567.848C997.72 567.592 998.28 567.232 998.648 566.768C999.032 566.288 999.224 565.728 999.224 565.088C999.224 564.224 998.904 563.56 998.264 563.096C997.624 562.632 996.792 562.4 995.768 562.4C994.696 562.4 993.8 562.536 993.08 562.808C992.376 563.08 991.688 563.432 991.016 563.864L989.984 562.4C990.432 562.064 990.944 561.768 991.52 561.512C992.112 561.24 992.768 561.024 993.488 560.864C994.208 560.704 994.976 560.624 995.792 560.624C997.024 560.624 998.056 560.808 998.888 561.176C999.736 561.544 1000.38 562.048 1000.81 562.688C1001.24 563.312 1001.46 564.04 1001.46 564.872ZM1010.02 564.92C1011.59 564.92 1012.75 565.264 1013.5 565.952C1014.25 566.64 1014.63 567.736 1014.63 569.24V578H1013.09L1012.69 576.176H1012.59C1012.22 576.64 1011.84 577.032 1011.44 577.352C1011.05 577.656 1010.61 577.88 1010.09 578.024C1009.6 578.168 1008.99 578.24 1008.27 578.24C1007.5 578.24 1006.81 578.104 1006.18 577.832C1005.57 577.56 1005.09 577.144 1004.74 576.584C1004.39 576.008 1004.21 575.288 1004.21 574.424C1004.21 573.144 1004.72 572.16 1005.73 571.472C1006.73 570.768 1008.29 570.384 1010.38 570.32L1012.57 570.248V569.48C1012.57 568.408 1012.33 567.664 1011.87 567.248C1011.41 566.832 1010.75 566.624 1009.9 566.624C1009.23 566.624 1008.59 566.728 1007.98 566.936C1007.37 567.128 1006.81 567.352 1006.28 567.608L1005.63 566.024C1006.19 565.72 1006.85 565.464 1007.62 565.256C1008.39 565.032 1009.19 564.92 1010.02 564.92ZM1010.65 571.784C1009.05 571.848 1007.93 572.104 1007.31 572.552C1006.7 573 1006.4 573.632 1006.4 574.448C1006.4 575.168 1006.61 575.696 1007.05 576.032C1007.49 576.368 1008.06 576.536 1008.75 576.536C1009.84 576.536 1010.74 576.24 1011.46 575.648C1012.18 575.04 1012.54 574.112 1012.54 572.864V571.712L1010.65 571.784ZM1017.93 570.272C1017.93 568.4 1018.11 566.808 1018.48 565.496C1018.87 564.168 1019.45 563.112 1020.23 562.328C1021.03 561.528 1022.06 560.992 1023.31 560.72C1024.35 560.496 1025.36 560.296 1026.35 560.12C1027.35 559.944 1028.27 559.784 1029.14 559.64L1029.5 561.488C1029.08 561.552 1028.62 561.632 1028.11 561.728C1027.59 561.808 1027.07 561.896 1026.55 561.992C1026.02 562.072 1025.51 562.16 1025.01 562.256C1024.53 562.336 1024.11 562.416 1023.74 562.496C1023.21 562.608 1022.74 562.8 1022.32 563.072C1021.91 563.328 1021.55 563.68 1021.24 564.128C1020.95 564.576 1020.72 565.128 1020.55 565.784C1020.37 566.44 1020.27 567.216 1020.23 568.112H1020.38C1020.6 567.808 1020.91 567.496 1021.29 567.176C1021.69 566.856 1022.16 566.584 1022.71 566.36C1023.27 566.136 1023.9 566.024 1024.6 566.024C1025.72 566.024 1026.65 566.272 1027.39 566.768C1028.14 567.248 1028.7 567.92 1029.07 568.784C1029.45 569.648 1029.64 570.656 1029.64 571.808C1029.64 573.232 1029.39 574.424 1028.9 575.384C1028.4 576.344 1027.71 577.064 1026.83 577.544C1025.95 578.008 1024.93 578.24 1023.76 578.24C1022.88 578.24 1022.08 578.072 1021.36 577.736C1020.64 577.384 1020.03 576.872 1019.51 576.2C1019 575.528 1018.61 574.696 1018.34 573.704C1018.07 572.712 1017.93 571.568 1017.93 570.272ZM1023.93 576.488C1024.63 576.488 1025.24 576.344 1025.75 576.056C1026.28 575.768 1026.69 575.296 1026.98 574.64C1027.27 573.984 1027.41 573.112 1027.41 572.024C1027.41 570.712 1027.16 569.68 1026.67 568.928C1026.19 568.16 1025.39 567.776 1024.27 567.776C1023.56 567.776 1022.92 567.936 1022.35 568.256C1021.77 568.56 1021.29 568.912 1020.91 569.312C1020.52 569.712 1020.25 570.048 1020.09 570.32C1020.09 571.104 1020.15 571.864 1020.26 572.6C1020.37 573.336 1020.56 574 1020.83 574.592C1021.12 575.168 1021.51 575.632 1022.01 575.984C1022.52 576.32 1023.16 576.488 1023.93 576.488ZM1032.97 578V565.136H1035.08V570.416H1038.42C1039.54 570.416 1040.46 570.552 1041.18 570.824C1041.9 571.096 1042.43 571.504 1042.79 572.048C1043.14 572.576 1043.31 573.248 1043.31 574.064C1043.31 574.864 1043.14 575.56 1042.79 576.152C1042.45 576.744 1041.91 577.2 1041.18 577.52C1040.46 577.84 1039.51 578 1038.32 578H1032.97ZM1038.13 576.296C1039.04 576.296 1039.79 576.144 1040.36 575.84C1040.94 575.52 1041.23 574.968 1041.23 574.184C1041.23 573.4 1040.96 572.872 1040.43 572.6C1039.91 572.312 1039.15 572.168 1038.15 572.168H1035.08V576.296H1038.13ZM1045.45 578V565.136H1047.56V578H1045.45ZM1061.44 578H1059.31V566.888H1055.51C1055.35 568.92 1055.15 570.656 1054.91 572.096C1054.67 573.52 1054.37 574.68 1054 575.576C1053.63 576.472 1053.19 577.128 1052.68 577.544C1052.17 577.96 1051.57 578.168 1050.88 578.168C1050.67 578.168 1050.47 578.152 1050.26 578.12C1050.07 578.104 1049.91 578.064 1049.78 578V576.416C1049.87 576.448 1049.98 576.472 1050.09 576.488C1050.2 576.504 1050.31 576.512 1050.43 576.512C1050.78 576.512 1051.1 576.368 1051.39 576.08C1051.67 575.792 1051.93 575.352 1052.15 574.76C1052.39 574.168 1052.61 573.424 1052.8 572.528C1052.99 571.616 1053.16 570.544 1053.31 569.312C1053.45 568.08 1053.58 566.688 1053.69 565.136H1061.44V578ZM1067.52 572.984C1067.52 573.128 1067.51 573.336 1067.49 573.608C1067.49 573.864 1067.48 574.144 1067.47 574.448C1067.45 574.736 1067.44 575.016 1067.42 575.288C1067.4 575.544 1067.39 575.752 1067.37 575.912L1074.26 565.136H1076.85V578H1074.88V570.416C1074.88 570.16 1074.88 569.824 1074.88 569.408C1074.9 568.992 1074.92 568.584 1074.93 568.184C1074.95 567.768 1074.96 567.456 1074.98 567.248L1068.14 578H1065.52V565.136H1067.52V572.984ZM1097.82 565.136V578H1095.71V566.936H1089.06V578H1086.95V565.136H1097.82ZM1106.79 564.92C1108.36 564.92 1109.52 565.264 1110.27 565.952C1111.03 566.64 1111.4 567.736 1111.4 569.24V578H1109.87L1109.46 576.176H1109.36C1108.99 576.64 1108.61 577.032 1108.21 577.352C1107.83 577.656 1107.38 577.88 1106.87 578.024C1106.37 578.168 1105.76 578.24 1105.04 578.24C1104.27 578.24 1103.58 578.104 1102.95 577.832C1102.35 577.56 1101.87 577.144 1101.51 576.584C1101.16 576.008 1100.99 575.288 1100.99 574.424C1100.99 573.144 1101.49 572.16 1102.5 571.472C1103.51 570.768 1105.06 570.384 1107.15 570.32L1109.34 570.248V569.48C1109.34 568.408 1109.11 567.664 1108.64 567.248C1108.18 566.832 1107.52 566.624 1106.67 566.624C1106 566.624 1105.36 566.728 1104.75 566.936C1104.15 567.128 1103.58 567.352 1103.05 567.608L1102.4 566.024C1102.96 565.72 1103.63 565.464 1104.39 565.256C1105.16 565.032 1105.96 564.92 1106.79 564.92ZM1107.42 571.784C1105.82 571.848 1104.71 572.104 1104.08 572.552C1103.47 573 1103.17 573.632 1103.17 574.448C1103.17 575.168 1103.39 575.696 1103.82 576.032C1104.27 576.368 1104.83 576.536 1105.52 576.536C1106.61 576.536 1107.51 576.24 1108.23 575.648C1108.95 575.04 1109.31 574.112 1109.31 572.864V571.712L1107.42 571.784ZM1121.5 564.896C1123.08 564.896 1124.35 565.448 1125.31 566.552C1126.29 567.656 1126.78 569.32 1126.78 571.544C1126.78 573 1126.55 574.232 1126.1 575.24C1125.67 576.232 1125.06 576.984 1124.26 577.496C1123.47 577.992 1122.54 578.24 1121.47 578.24C1120.82 578.24 1120.23 578.152 1119.72 577.976C1119.21 577.8 1118.77 577.576 1118.4 577.304C1118.05 577.016 1117.74 576.704 1117.49 576.368H1117.34C1117.38 576.64 1117.41 576.984 1117.44 577.4C1117.47 577.816 1117.49 578.176 1117.49 578.48V583.76H1115.38V565.136H1117.1L1117.39 566.888H1117.49C1117.74 566.52 1118.05 566.184 1118.4 565.88C1118.77 565.576 1119.2 565.336 1119.7 565.16C1120.21 564.984 1120.81 564.896 1121.5 564.896ZM1121.11 566.672C1120.25 566.672 1119.55 566.84 1119.02 567.176C1118.5 567.496 1118.11 567.984 1117.87 568.64C1117.63 569.296 1117.5 570.128 1117.49 571.136V571.544C1117.49 572.6 1117.6 573.496 1117.82 574.232C1118.05 574.968 1118.42 575.528 1118.95 575.912C1119.5 576.296 1120.23 576.488 1121.16 576.488C1121.94 576.488 1122.58 576.272 1123.08 575.84C1123.59 575.408 1123.97 574.824 1124.21 574.088C1124.46 573.336 1124.59 572.48 1124.59 571.52C1124.59 570.048 1124.3 568.872 1123.73 567.992C1123.17 567.112 1122.3 566.672 1121.11 566.672ZM1141.33 571.544C1141.33 572.616 1141.18 573.568 1140.89 574.4C1140.62 575.216 1140.22 575.912 1139.69 576.488C1139.18 577.064 1138.55 577.504 1137.8 577.808C1137.06 578.096 1136.24 578.24 1135.33 578.24C1134.48 578.24 1133.69 578.096 1132.97 577.808C1132.25 577.504 1131.63 577.064 1131.1 576.488C1130.57 575.912 1130.16 575.216 1129.85 574.4C1129.57 573.568 1129.42 572.616 1129.42 571.544C1129.42 570.12 1129.66 568.92 1130.14 567.944C1130.62 566.952 1131.31 566.2 1132.21 565.688C1133.1 565.16 1134.17 564.896 1135.4 564.896C1136.57 564.896 1137.59 565.16 1138.47 565.688C1139.37 566.2 1140.06 566.952 1140.56 567.944C1141.07 568.92 1141.33 570.12 1141.33 571.544ZM1131.61 571.544C1131.61 572.552 1131.73 573.432 1131.99 574.184C1132.26 574.92 1132.68 575.488 1133.24 575.888C1133.8 576.288 1134.51 576.488 1135.37 576.488C1136.24 576.488 1136.95 576.288 1137.51 575.888C1138.07 575.488 1138.48 574.92 1138.73 574.184C1139.01 573.432 1139.14 572.552 1139.14 571.544C1139.14 570.52 1139.01 569.648 1138.73 568.928C1138.46 568.208 1138.05 567.656 1137.49 567.272C1136.94 566.872 1136.23 566.672 1135.35 566.672C1134.04 566.672 1133.09 567.104 1132.49 567.968C1131.9 568.832 1131.61 570.024 1131.61 571.544ZM1154.46 578H1152.33V566.888H1148.54C1148.38 568.92 1148.18 570.656 1147.94 572.096C1147.7 573.52 1147.39 574.68 1147.02 575.576C1146.66 576.472 1146.22 577.128 1145.7 577.544C1145.19 577.96 1144.59 578.168 1143.9 578.168C1143.7 578.168 1143.49 578.152 1143.28 578.12C1143.09 578.104 1142.93 578.064 1142.8 578V576.416C1142.9 576.448 1143 576.472 1143.11 576.488C1143.22 576.504 1143.34 576.512 1143.45 576.512C1143.8 576.512 1144.12 576.368 1144.41 576.08C1144.7 575.792 1144.95 575.352 1145.18 574.76C1145.42 574.168 1145.63 573.424 1145.82 572.528C1146.02 571.616 1146.18 570.544 1146.33 569.312C1146.47 568.08 1146.6 566.688 1146.71 565.136H1154.46V578ZM1164.48 570.416C1165.6 570.416 1166.52 570.552 1167.26 570.824C1168 571.096 1168.55 571.504 1168.92 572.048C1169.3 572.576 1169.49 573.248 1169.49 574.064C1169.49 574.864 1169.31 575.56 1168.94 576.152C1168.59 576.744 1168.04 577.2 1167.28 577.52C1166.53 577.84 1165.56 578 1164.38 578H1158.55V565.136H1160.66V570.416H1164.48ZM1167.38 574.184C1167.38 573.4 1167.1 572.872 1166.54 572.6C1166 572.312 1165.23 572.168 1164.24 572.168H1160.66V576.296H1164.28C1165.18 576.296 1165.92 576.136 1166.49 575.816C1167.08 575.496 1167.38 574.952 1167.38 574.184ZM1174.96 573.68H1173.28V572.072C1173.28 571.304 1173.42 570.624 1173.71 570.032C1174 569.424 1174.29 568.992 1174.57 568.736C1174.86 568.48 1175.24 568.184 1175.7 567.848C1176.17 567.496 1176.48 567.248 1176.64 567.104C1176.81 566.944 1176.99 566.712 1177.17 566.408C1177.34 566.104 1177.43 565.768 1177.43 565.4C1177.43 564.776 1177.19 564.304 1176.71 563.984C1176.23 563.664 1175.62 563.504 1174.89 563.504C1173.61 563.504 1172.57 563.92 1171.77 564.752L1170.76 563.408C1171.89 562.352 1173.29 561.824 1174.96 561.824C1176.17 561.824 1177.19 562.136 1178.01 562.76C1178.84 563.368 1179.25 564.248 1179.25 565.4C1179.25 566.008 1179.12 566.56 1178.85 567.056C1178.59 567.552 1178.33 567.92 1178.05 568.16C1177.8 568.4 1177.44 568.68 1176.97 569C1176.53 569.32 1176.18 569.584 1175.94 569.792C1175.72 570 1175.49 570.312 1175.27 570.728C1175.06 571.144 1174.96 571.592 1174.96 572.072V573.68ZM1173.13 577.976C1172.91 577.72 1172.8 577.4 1172.8 577.016C1172.8 576.632 1172.91 576.32 1173.13 576.08C1173.36 575.824 1173.68 575.696 1174.09 575.696C1174.53 575.696 1174.85 575.824 1175.08 576.08C1175.32 576.32 1175.44 576.632 1175.44 577.016C1175.44 577.4 1175.32 577.72 1175.08 577.976C1174.85 578.216 1174.53 578.336 1174.09 578.336C1173.68 578.336 1173.36 578.216 1173.13 577.976Z" fill="black" fill-opacity="0.42"/>
</svg>
