<svg width="1920" height="1080" viewBox="0 0 1920 1080" fill="none" xmlns="http://www.w3.org/2000/svg">
<rect width="1920" height="1080" fill="#1E1E1E"/>
<rect width="1920" height="1080" fill="white"/>
<path d="M759.466 195.304C765.439 195.304 769.791 196.477 772.522 198.824C775.252 201.171 776.618 204.477 776.618 208.744C776.618 210.621 776.298 212.435 775.658 214.184C775.06 215.891 774.058 217.427 772.65 218.792C771.242 220.157 769.364 221.245 767.018 222.056C764.671 222.824 761.791 223.208 758.378 223.208H753.13V241H747.37V195.304H759.466ZM758.954 200.232H753.13V218.28H757.738C760.639 218.28 763.05 217.981 764.97 217.384C766.89 216.744 768.319 215.741 769.258 214.376C770.196 213.011 770.666 211.219 770.666 209C770.666 206.056 769.727 203.859 767.85 202.408C765.972 200.957 763.007 200.232 758.954 200.232ZM798.6 206.056C801.544 206.056 804.061 206.696 806.152 207.976C808.285 209.256 809.906 211.069 811.016 213.416C812.168 215.72 812.744 218.429 812.744 221.544V224.936H789.256C789.341 228.819 790.322 231.784 792.2 233.832C794.12 235.837 796.786 236.84 800.2 236.84C802.376 236.84 804.296 236.648 805.96 236.264C807.666 235.837 809.416 235.24 811.208 234.472V239.4C809.458 240.168 807.73 240.723 806.024 241.064C804.317 241.448 802.29 241.64 799.944 241.64C796.701 241.64 793.821 240.979 791.304 239.656C788.829 238.333 786.888 236.371 785.48 233.768C784.114 231.123 783.432 227.901 783.432 224.104C783.432 220.349 784.05 217.128 785.288 214.44C786.568 211.752 788.338 209.683 790.6 208.232C792.904 206.781 795.57 206.056 798.6 206.056ZM798.536 210.664C795.848 210.664 793.714 211.539 792.136 213.288C790.6 214.995 789.682 217.384 789.384 220.456H806.856C806.856 218.493 806.557 216.787 805.96 215.336C805.362 213.885 804.445 212.755 803.208 211.944C802.013 211.091 800.456 210.664 798.536 210.664ZM842.405 206.696V211.432H827.109V241H821.477V206.696H842.405ZM854.476 227.624C854.476 228.008 854.455 228.563 854.412 229.288C854.412 229.971 854.391 230.717 854.348 231.528C854.305 232.296 854.263 233.043 854.22 233.768C854.177 234.451 854.135 235.005 854.092 235.432L872.46 206.696H879.372V241H874.124V220.776C874.124 220.093 874.124 219.197 874.124 218.088C874.167 216.979 874.209 215.891 874.252 214.824C874.295 213.715 874.337 212.883 874.38 212.328L856.14 241H849.164V206.696H854.476V227.624ZM904.049 241.64C901.02 241.64 898.31 241.021 895.921 239.784C893.574 238.547 891.718 236.627 890.353 234.024C889.03 231.421 888.369 228.093 888.369 224.04C888.369 219.816 889.073 216.381 890.481 213.736C891.889 211.091 893.788 209.149 896.177 207.912C898.609 206.675 901.361 206.056 904.433 206.056C906.182 206.056 907.868 206.248 909.489 206.632C911.11 206.973 912.433 207.4 913.457 207.912L911.729 212.584C910.705 212.2 909.51 211.837 908.145 211.496C906.78 211.155 905.5 210.984 904.305 210.984C902.001 210.984 900.102 211.475 898.609 212.456C897.116 213.437 896.006 214.888 895.281 216.808C894.556 218.728 894.193 221.117 894.193 223.976C894.193 226.707 894.556 229.032 895.281 230.952C896.006 232.872 897.094 234.323 898.545 235.304C899.996 236.285 901.809 236.776 903.985 236.776C905.862 236.776 907.505 236.584 908.913 236.2C910.364 235.816 911.686 235.347 912.881 234.792V239.784C911.729 240.381 910.449 240.829 909.041 241.128C907.676 241.469 906.012 241.64 904.049 241.64ZM944.719 211.432H933.519V241H927.951V211.432H916.879V206.696H944.719V211.432ZM967.797 206.056C972.021 206.056 975.413 207.528 977.973 210.472C980.575 213.416 981.877 217.853 981.877 223.784C981.877 227.667 981.279 230.952 980.085 233.64C978.933 236.285 977.29 238.291 975.157 239.656C973.066 240.979 970.591 241.64 967.733 241.64C965.983 241.64 964.426 241.405 963.061 240.936C961.695 240.467 960.522 239.869 959.541 239.144C958.602 238.376 957.791 237.544 957.109 236.648H956.725C956.81 237.373 956.895 238.291 956.981 239.4C957.066 240.509 957.109 241.469 957.109 242.28V256.36H951.477V206.696H956.085L956.853 211.368H957.109C957.791 210.387 958.602 209.491 959.541 208.68C960.522 207.869 961.674 207.229 962.997 206.76C964.362 206.291 965.962 206.056 967.797 206.056ZM966.773 210.792C964.469 210.792 962.613 211.24 961.205 212.136C959.797 212.989 958.773 214.291 958.133 216.04C957.493 217.789 957.151 220.008 957.109 222.696V223.784C957.109 226.6 957.407 228.989 958.005 230.952C958.602 232.915 959.605 234.408 961.013 235.432C962.463 236.456 964.426 236.968 966.901 236.968C968.991 236.968 970.698 236.392 972.021 235.24C973.386 234.088 974.389 232.531 975.029 230.568C975.711 228.563 976.053 226.28 976.053 223.72C976.053 219.795 975.285 216.659 973.749 214.312C972.255 211.965 969.93 210.792 966.773 210.792ZM1003.84 206.12C1008.02 206.12 1011.12 207.037 1013.12 208.872C1015.13 210.707 1016.13 213.629 1016.13 217.64V241H1012.04L1010.95 236.136H1010.69C1009.71 237.373 1008.69 238.419 1007.62 239.272C1006.6 240.083 1005.4 240.68 1004.04 241.064C1002.71 241.448 1001.09 241.64 999.172 241.64C997.124 241.64 995.268 241.277 993.604 240.552C991.982 239.827 990.702 238.717 989.764 237.224C988.825 235.688 988.356 233.768 988.356 231.464C988.356 228.051 989.7 225.427 992.388 223.592C995.076 221.715 999.214 220.691 1004.8 220.52L1010.63 220.328V218.28C1010.63 215.421 1010.01 213.437 1008.77 212.328C1007.53 211.219 1005.78 210.664 1003.52 210.664C1001.73 210.664 1000.02 210.941 998.404 211.496C996.782 212.008 995.268 212.605 993.86 213.288L992.132 209.064C993.625 208.253 995.396 207.571 997.444 207.016C999.492 206.419 1001.62 206.12 1003.84 206.12ZM1005.51 224.424C1001.24 224.595 998.276 225.277 996.612 226.472C994.99 227.667 994.18 229.352 994.18 231.528C994.18 233.448 994.756 234.856 995.908 235.752C997.102 236.648 998.617 237.096 1000.45 237.096C1003.35 237.096 1005.76 236.307 1007.68 234.728C1009.6 233.107 1010.56 230.632 1010.56 227.304V224.232L1005.51 224.424ZM1060.58 252.904H1055.08V241H1026.73V206.696H1032.36V236.264H1050.09V206.696H1055.72V236.328H1060.58V252.904ZM1072.48 227.624C1072.48 228.008 1072.45 228.563 1072.41 229.288C1072.41 229.971 1072.39 230.717 1072.35 231.528C1072.31 232.296 1072.26 233.043 1072.22 233.768C1072.18 234.451 1072.13 235.005 1072.09 235.432L1090.46 206.696H1097.37V241H1092.12V220.776C1092.12 220.093 1092.12 219.197 1092.12 218.088C1092.17 216.979 1092.21 215.891 1092.25 214.824C1092.29 213.715 1092.34 212.883 1092.38 212.328L1074.14 241H1067.16V206.696H1072.48V227.624ZM1110.4 241H1103.87L1113.67 226.6C1112.34 226.259 1111.06 225.725 1109.83 225C1108.59 224.232 1107.59 223.187 1106.82 221.864C1106.05 220.499 1105.67 218.813 1105.67 216.808C1105.67 213.523 1106.77 211.027 1108.99 209.32C1111.21 207.571 1114.16 206.696 1117.83 206.696H1133.19V241H1127.55V227.368H1119.23L1110.4 241ZM1111.11 216.872C1111.11 218.835 1111.83 220.307 1113.28 221.288C1114.77 222.227 1116.84 222.696 1119.49 222.696H1127.55V211.368H1118.4C1115.8 211.368 1113.92 211.88 1112.77 212.904C1111.66 213.928 1111.11 215.251 1111.11 216.872Z" fill="black"/>
<rect x="698.26" y="289" width="490" height="75.9118" rx="20" transform="rotate(0.0638818 698.26 289)" fill="#E0E0E0"/>
<path d="M715.202 305.827L716.882 305.829L716.873 313.669C716.873 314.002 716.865 314.369 716.852 314.769C716.851 315.156 716.844 315.542 716.83 315.929C716.817 316.316 716.796 316.662 716.769 316.969C716.756 317.262 716.742 317.489 716.728 317.649L716.808 317.649L724.682 305.838L726.682 305.84L726.666 320.12L724.986 320.118L724.994 312.358C724.995 311.998 725.002 311.611 725.016 311.198C725.029 310.771 725.043 310.365 725.057 309.978C725.084 309.578 725.105 309.225 725.118 308.918C725.132 308.612 725.145 308.385 725.159 308.238L725.079 308.238L717.186 320.109L715.186 320.107L715.202 305.827ZM741.789 309.417L741.777 320.137L740.197 320.135L740.205 313.295C740.205 313.015 740.212 312.722 740.226 312.415C740.253 312.108 740.28 311.808 740.307 311.515L740.247 311.515L736.737 320.131L735.257 320.13L731.867 311.506L731.807 311.506C731.833 311.799 731.846 312.099 731.846 312.406C731.859 312.712 731.865 313.026 731.865 313.346L731.857 320.126L730.277 320.124L730.289 309.404L732.629 309.407L736 318.03L739.449 309.414L741.789 309.417ZM745.859 320.141L743.819 320.139L746.884 315.642C746.471 315.535 746.071 315.368 745.685 315.141C745.298 314.901 744.985 314.574 744.746 314.16C744.506 313.733 744.387 313.206 744.388 312.58C744.389 311.553 744.736 310.773 745.43 310.241C746.124 309.695 747.044 309.423 748.191 309.424L752.991 309.429L752.979 320.149L751.219 320.147L751.224 315.887L748.624 315.884L745.859 320.141ZM746.088 312.602C746.087 313.215 746.313 313.675 746.766 313.982C747.232 314.276 747.879 314.424 748.705 314.424L751.225 314.427L751.229 310.887L748.369 310.884C747.556 310.883 746.969 311.043 746.609 311.362C746.262 311.682 746.088 312.095 746.088 312.602ZM770.443 309.449L770.431 320.169L768.671 320.167L768.681 310.947L763.141 310.941L763.131 320.161L761.371 320.159L761.383 309.439L770.443 309.449ZM783.177 314.803C783.176 315.696 783.056 316.489 782.815 317.183C782.587 317.862 782.253 318.442 781.813 318.921C781.386 319.401 780.859 319.767 780.232 320.02C779.618 320.259 778.931 320.378 778.171 320.377C777.465 320.377 776.811 320.256 776.212 320.015C775.612 319.761 775.092 319.394 774.653 318.913C774.213 318.433 773.867 317.853 773.615 317.172C773.376 316.479 773.256 315.685 773.257 314.792C773.259 313.605 773.46 312.605 773.861 311.793C774.262 310.966 774.836 310.34 775.583 309.914C776.33 309.475 777.217 309.256 778.244 309.257C779.217 309.259 780.07 309.479 780.803 309.92C781.549 310.348 782.128 310.975 782.541 311.802C782.967 312.616 783.179 313.616 783.177 314.803ZM775.077 314.794C775.077 315.634 775.182 316.367 775.395 316.994C775.621 317.608 775.967 318.082 776.433 318.415C776.9 318.749 777.493 318.917 778.213 318.917C778.933 318.918 779.526 318.752 779.993 318.419C780.46 318.087 780.801 317.614 781.015 317.001C781.242 316.374 781.357 315.641 781.357 314.801C781.358 313.948 781.246 313.221 781.02 312.621C780.794 312.02 780.448 311.56 779.981 311.239C779.528 310.906 778.935 310.738 778.202 310.737C777.109 310.736 776.315 311.095 775.821 311.815C775.327 312.534 775.079 313.527 775.077 314.794ZM794.121 320.195L792.341 320.193L792.351 310.933L789.191 310.93C789.056 312.623 788.888 314.069 788.686 315.269C788.485 316.456 788.231 317.422 787.923 318.168C787.616 318.915 787.248 319.461 786.821 319.807C786.394 320.153 785.894 320.326 785.321 320.325C785.147 320.325 784.974 320.312 784.801 320.285C784.641 320.271 784.507 320.238 784.401 320.184L784.402 318.864C784.482 318.891 784.569 318.911 784.662 318.925C784.756 318.938 784.849 318.945 784.942 318.945C785.236 318.945 785.502 318.826 785.743 318.586C785.983 318.346 786.197 317.98 786.384 317.487C786.584 316.993 786.765 316.374 786.926 315.627C787.087 314.867 787.228 313.974 787.349 312.948C787.47 311.921 787.578 310.761 787.673 309.468L794.133 309.475L794.121 320.195ZM802.47 313.884C803.404 313.885 804.177 314 804.79 314.227C805.403 314.454 805.863 314.795 806.169 315.249C806.488 315.689 806.648 316.249 806.647 316.929C806.646 317.596 806.492 318.176 806.185 318.669C805.891 319.162 805.431 319.541 804.804 319.807C804.177 320.073 803.37 320.205 802.383 320.204L797.523 320.199L797.535 309.479L799.295 309.481L799.29 313.881L802.47 313.884ZM804.887 317.027C804.888 316.374 804.655 315.934 804.188 315.706C803.735 315.466 803.095 315.345 802.269 315.344L799.289 315.341L799.285 318.781L802.305 318.784C803.052 318.785 803.665 318.652 804.145 318.386C804.639 318.12 804.886 317.667 804.887 317.027ZM812.23 309.295C813.044 309.296 813.75 309.41 814.35 309.638C814.95 309.852 815.416 310.172 815.749 310.599C816.082 311.013 816.248 311.52 816.247 312.12C816.247 312.773 816.066 313.293 815.706 313.679C815.345 314.052 814.852 314.325 814.225 314.498L814.225 314.578C814.651 314.698 815.044 314.865 815.404 315.079C815.764 315.293 816.05 315.573 816.263 315.92C816.489 316.267 816.602 316.714 816.602 317.26C816.601 317.847 816.434 318.38 816.1 318.86C815.779 319.339 815.279 319.719 814.599 319.998C813.932 320.277 813.071 320.416 812.018 320.415C811.511 320.415 811.025 320.387 810.558 320.333C810.105 320.28 809.692 320.199 809.318 320.092C808.959 319.985 808.639 319.858 808.359 319.711L808.361 318.131C808.814 318.345 809.347 318.539 809.96 318.713C810.586 318.887 811.266 318.974 812 318.975C812.533 318.976 813.013 318.916 813.44 318.797C813.88 318.677 814.227 318.491 814.481 318.238C814.734 317.971 814.861 317.612 814.862 317.158C814.862 316.745 814.749 316.411 814.523 316.158C814.296 315.891 813.957 315.691 813.503 315.557C813.064 315.423 812.497 315.356 811.804 315.355L810.364 315.353L810.365 313.913L811.525 313.915C812.445 313.916 813.179 313.796 813.726 313.557C814.286 313.304 814.566 312.878 814.567 312.278C814.568 311.771 814.355 311.391 813.928 311.137C813.515 310.883 812.916 310.756 812.129 310.755C811.542 310.755 811.022 310.814 810.569 310.933C810.129 311.04 809.642 311.206 809.108 311.432L808.49 310.031C809.063 309.778 809.663 309.592 810.29 309.473C810.917 309.354 811.564 309.295 812.23 309.295ZM828.529 314.853C828.528 315.747 828.407 316.54 828.166 317.233C827.939 317.913 827.605 318.492 827.164 318.972C826.737 319.451 826.21 319.818 825.583 320.07C824.97 320.31 824.283 320.429 823.523 320.428C822.816 320.427 822.163 320.306 821.563 320.066C820.963 319.812 820.444 319.444 820.004 318.964C819.565 318.484 819.219 317.903 818.966 317.223C818.727 316.529 818.608 315.736 818.609 314.842C818.61 313.656 818.811 312.656 819.212 311.843C819.613 311.017 820.187 310.391 820.934 309.965C821.682 309.526 822.568 309.307 823.595 309.308C824.568 309.309 825.422 309.53 826.154 309.971C826.901 310.398 827.48 311.026 827.892 311.853C828.318 312.667 828.53 313.667 828.529 314.853ZM820.429 314.844C820.428 315.684 820.534 316.418 820.747 317.045C820.973 317.658 821.319 318.132 821.785 318.466C822.251 318.8 822.844 318.967 823.564 318.968C824.284 318.969 824.878 318.803 825.345 318.47C825.812 318.137 826.153 317.664 826.367 317.051C826.594 316.425 826.708 315.691 826.709 314.851C826.71 313.998 826.597 313.271 826.371 312.671C826.145 312.071 825.799 311.61 825.333 311.29C824.88 310.956 824.287 310.789 823.554 310.788C822.46 310.787 821.666 311.146 821.172 311.865C820.678 312.585 820.43 313.578 820.429 314.844ZM839.941 312.226C839.941 312.893 839.74 313.413 839.34 313.786C838.939 314.158 838.426 314.411 837.799 314.544L837.799 314.624C838.465 314.718 839.045 314.959 839.538 315.346C840.031 315.72 840.277 316.307 840.276 317.107C840.275 317.56 840.188 317.98 840.014 318.366C839.854 318.753 839.6 319.086 839.253 319.365C838.906 319.645 838.459 319.865 837.913 320.024C837.366 320.17 836.706 320.243 835.932 320.242L831.312 320.237L831.324 309.517L835.924 309.522C836.684 309.523 837.364 309.61 837.964 309.784C838.577 309.945 839.057 310.225 839.403 310.626C839.763 311.013 839.942 311.546 839.941 312.226ZM838.456 317.105C838.457 316.491 838.224 316.051 837.757 315.784C837.291 315.517 836.604 315.382 835.698 315.381L833.078 315.379L833.074 318.819L835.734 318.822C836.614 318.823 837.287 318.697 837.754 318.444C838.221 318.178 838.455 317.731 838.456 317.105ZM838.161 312.444C838.162 311.938 837.975 311.571 837.602 311.344C837.243 311.103 836.649 310.983 835.823 310.982L833.083 310.979L833.079 313.919L835.499 313.921C836.366 313.922 837.026 313.803 837.48 313.563C837.933 313.324 838.16 312.951 838.161 312.444ZM846.908 309.354C848.215 309.355 849.181 309.643 849.807 310.217C850.433 310.791 850.745 311.705 850.744 312.958L850.736 320.258L849.456 320.257L849.117 318.736L849.037 318.736C848.73 319.123 848.41 319.449 848.076 319.715C847.756 319.968 847.383 320.155 846.956 320.274C846.542 320.394 846.036 320.453 845.436 320.452C844.796 320.452 844.216 320.338 843.696 320.11C843.19 319.883 842.79 319.536 842.497 319.069C842.204 318.589 842.058 317.989 842.059 317.269C842.06 316.202 842.481 315.382 843.322 314.81C844.163 314.224 845.456 313.906 847.203 313.854L849.023 313.796L849.024 313.156C849.025 312.263 848.832 311.643 848.446 311.296C848.059 310.949 847.513 310.775 846.806 310.774C846.246 310.773 845.713 310.859 845.206 311.032C844.699 311.192 844.226 311.378 843.785 311.591L843.247 310.27C843.714 310.017 844.267 309.804 844.908 309.632C845.548 309.446 846.215 309.353 846.908 309.354ZM847.422 315.075C846.088 315.126 845.161 315.339 844.641 315.711C844.134 316.084 843.88 316.611 843.879 317.291C843.878 317.891 844.058 318.331 844.418 318.611C844.791 318.892 845.264 319.032 845.837 319.033C846.744 319.034 847.497 318.788 848.098 318.295C848.699 317.789 848.999 317.016 849.001 315.976L849.002 315.016L847.422 315.075ZM861.457 311.03L857.957 311.026L857.947 320.266L856.207 320.264L856.217 311.024L852.757 311.021L852.759 309.541L861.459 309.55L861.457 311.03ZM867.515 309.357C868.435 309.358 869.222 309.559 869.875 309.96C870.541 310.36 871.047 310.928 871.393 311.661C871.752 312.382 871.931 313.229 871.93 314.202L871.929 315.262L864.589 315.254C864.614 316.467 864.92 317.394 865.506 318.035C866.105 318.662 866.938 318.976 868.005 318.978C868.685 318.978 869.285 318.919 869.805 318.8C870.338 318.667 870.885 318.481 871.445 318.241L871.444 319.781C870.897 320.021 870.357 320.193 869.823 320.3C869.29 320.419 868.656 320.478 867.923 320.477C866.91 320.476 866.01 320.269 865.224 319.854C864.451 319.44 863.845 318.826 863.406 318.012C862.98 317.185 862.768 316.178 862.769 314.992C862.77 313.818 862.965 312.812 863.352 311.972C863.753 311.133 864.307 310.487 865.015 310.034C865.735 309.582 866.569 309.356 867.515 309.357ZM867.494 310.797C866.654 310.796 865.987 311.069 865.493 311.615C865.012 312.148 864.725 312.894 864.63 313.854L870.09 313.86C870.091 313.246 869.998 312.713 869.812 312.26C869.626 311.806 869.34 311.452 868.953 311.199C868.58 310.931 868.094 310.798 867.494 310.797ZM882.812 320.294L881.032 320.292L881.042 311.032L877.882 311.029C877.747 312.722 877.579 314.168 877.378 315.368C877.176 316.554 876.922 317.521 876.614 318.267C876.307 319.013 875.94 319.56 875.513 319.906C875.086 320.252 874.585 320.425 874.012 320.424C873.839 320.424 873.665 320.41 873.492 320.384C873.332 320.37 873.199 320.337 873.092 320.283L873.094 318.963C873.174 318.99 873.26 319.01 873.354 319.023C873.447 319.037 873.54 319.044 873.634 319.044C873.927 319.044 874.194 318.924 874.434 318.685C874.674 318.445 874.888 318.079 875.075 317.585C875.276 317.092 875.456 316.472 875.617 315.726C875.778 314.966 875.919 314.073 876.04 313.046C876.161 312.02 876.269 310.86 876.364 309.567L882.824 309.574L882.812 320.294ZM886.875 320.299L884.835 320.296L887.9 315.8C887.486 315.693 887.087 315.525 886.7 315.298C886.314 315.058 886.001 314.731 885.761 314.317C885.522 313.89 885.402 313.364 885.403 312.737C885.404 311.71 885.752 310.931 886.446 310.398C887.14 309.852 888.06 309.58 889.207 309.581L894.007 309.586L893.995 320.306L892.235 320.305L892.239 316.045L889.639 316.042L886.875 320.299ZM887.103 312.759C887.102 313.372 887.329 313.832 887.782 314.14C888.248 314.433 888.894 314.581 889.721 314.582L892.241 314.585L892.245 311.045L889.385 311.041C888.572 311.04 887.985 311.2 887.624 311.519C887.277 311.839 887.104 312.252 887.103 312.759Z" fill="black"/>
<rect x="696" y="699" width="490" height="89" fill="#2C59FB"/>
<path d="M759.327 734.855C759.327 736.558 758.79 737.912 757.717 738.915C756.643 739.895 755.208 740.525 753.412 740.805V740.945C755.512 741.225 757.11 741.878 758.207 742.905C759.303 743.932 759.852 745.273 759.852 746.93C759.852 748.4 759.478 749.695 758.732 750.815C757.985 751.912 756.865 752.775 755.372 753.405C753.878 754.035 752.012 754.35 749.772 754.35C748.418 754.35 747.123 754.245 745.887 754.035C744.673 753.848 743.542 753.498 742.492 752.985V750.115C743.215 750.465 743.985 750.768 744.802 751.025C745.642 751.258 746.482 751.445 747.322 751.585C748.162 751.702 748.967 751.76 749.737 751.76C751.977 751.76 753.668 751.34 754.812 750.5C755.978 749.66 756.562 748.47 756.562 746.93C756.562 745.343 755.885 744.188 754.532 743.465C753.178 742.742 751.288 742.38 748.862 742.38H745.292V739.755H748.687C750.343 739.755 751.708 739.568 752.782 739.195C753.878 738.822 754.695 738.297 755.232 737.62C755.792 736.92 756.072 736.103 756.072 735.17C756.072 733.91 755.605 732.942 754.672 732.265C753.738 731.588 752.525 731.25 751.032 731.25C749.468 731.25 748.162 731.448 747.112 731.845C746.085 732.242 745.082 732.755 744.102 733.385L742.597 731.25C743.25 730.76 743.997 730.328 744.837 729.955C745.7 729.558 746.657 729.243 747.707 729.01C748.757 728.777 749.877 728.66 751.067 728.66C752.863 728.66 754.368 728.928 755.582 729.465C756.818 730.002 757.752 730.737 758.382 731.67C759.012 732.58 759.327 733.642 759.327 734.855ZM780.813 754L777.803 746.265H767.898L764.923 754H761.738L771.503 728.905H774.338L784.068 754H780.813ZM774.058 735.905C773.988 735.718 773.871 735.38 773.708 734.89C773.544 734.4 773.381 733.898 773.218 733.385C773.078 732.848 772.961 732.44 772.868 732.16C772.751 732.627 772.623 733.105 772.483 733.595C772.366 734.062 772.238 734.493 772.098 734.89C771.981 735.287 771.876 735.625 771.783 735.905L768.948 743.465H776.858L774.058 735.905ZM794.101 729.01C797.368 729.01 799.748 729.652 801.241 730.935C802.735 732.218 803.481 734.027 803.481 736.36C803.481 737.387 803.306 738.378 802.956 739.335C802.63 740.268 802.081 741.108 801.311 741.855C800.541 742.602 799.515 743.197 798.231 743.64C796.948 744.06 795.373 744.27 793.506 744.27H790.636V754H787.486V729.01H794.101ZM793.821 731.705H790.636V741.575H793.156C794.743 741.575 796.061 741.412 797.111 741.085C798.161 740.735 798.943 740.187 799.456 739.44C799.97 738.693 800.226 737.713 800.226 736.5C800.226 734.89 799.713 733.688 798.686 732.895C797.66 732.102 796.038 731.705 793.821 731.705ZM822.643 754H808.678V729.01H822.643V731.775H811.828V739.58H822.013V742.31H811.828V751.235H822.643V754ZM842.231 729.01V731.81H831.276V754H828.126V729.01H842.231ZM846.515 729.01H849.455V742.73C849.455 743.313 849.444 743.955 849.42 744.655C849.42 745.332 849.409 746.008 849.385 746.685C849.362 747.362 849.327 747.968 849.28 748.505C849.257 749.018 849.234 749.415 849.21 749.695H849.35L863.105 729.01H866.605V754H863.665V740.42C863.665 739.79 863.677 739.113 863.7 738.39C863.724 737.643 863.747 736.932 863.77 736.255C863.817 735.555 863.852 734.937 863.875 734.4C863.899 733.863 863.922 733.467 863.945 733.21H863.805L850.015 754H846.515V729.01ZM884.056 731.425C882.726 731.425 881.524 731.658 880.451 732.125C879.377 732.568 878.467 733.233 877.721 734.12C876.974 734.983 876.402 736.045 876.006 737.305C875.609 738.542 875.411 739.942 875.411 741.505C875.411 743.558 875.726 745.343 876.356 746.86C877.009 748.377 877.966 749.543 879.226 750.36C880.509 751.177 882.107 751.585 884.021 751.585C885.117 751.585 886.156 751.492 887.136 751.305C888.116 751.118 889.072 750.885 890.006 750.605V753.335C889.072 753.685 888.104 753.942 887.101 754.105C886.121 754.268 884.942 754.35 883.566 754.35C881.022 754.35 878.899 753.825 877.196 752.775C875.492 751.725 874.209 750.232 873.346 748.295C872.506 746.358 872.086 744.083 872.086 741.47C872.086 739.58 872.342 737.853 872.856 736.29C873.392 734.727 874.162 733.373 875.166 732.23C876.192 731.087 877.452 730.212 878.946 729.605C880.439 728.975 882.154 728.66 884.091 728.66C885.374 728.66 886.611 728.788 887.801 729.045C888.991 729.302 890.052 729.663 890.986 730.13L889.726 732.79C888.956 732.44 888.092 732.125 887.136 731.845C886.202 731.565 885.176 731.425 884.056 731.425ZM903.37 754H900.22V731.775H892.415V729.01H911.14V731.775H903.37V754ZM921.523 729.01C924.79 729.01 927.17 729.652 928.663 730.935C930.157 732.218 930.903 734.027 930.903 736.36C930.903 737.387 930.728 738.378 930.378 739.335C930.052 740.268 929.503 741.108 928.733 741.855C927.963 742.602 926.937 743.197 925.653 743.64C924.37 744.06 922.795 744.27 920.928 744.27H918.058V754H914.908V729.01H921.523ZM921.243 731.705H918.058V741.575H920.578C922.165 741.575 923.483 741.412 924.533 741.085C925.583 740.735 926.365 740.187 926.878 739.44C927.392 738.693 927.648 737.713 927.648 736.5C927.648 734.89 927.135 733.688 926.108 732.895C925.082 732.102 923.46 731.705 921.243 731.705ZM936.135 729.01H939.075V742.73C939.075 743.313 939.063 743.955 939.04 744.655C939.04 745.332 939.028 746.008 939.005 746.685C938.981 747.362 938.946 747.968 938.9 748.505C938.876 749.018 938.853 749.415 938.83 749.695H938.97L952.725 729.01H956.225V754H953.285V740.42C953.285 739.79 953.296 739.113 953.32 738.39C953.343 737.643 953.366 736.932 953.39 736.255C953.436 735.555 953.471 734.937 953.495 734.4C953.518 733.863 953.541 733.467 953.565 733.21H953.425L939.635 754H936.135V729.01ZM969.58 729.01C972.846 729.01 975.226 729.652 976.72 730.935C978.213 732.218 978.96 734.027 978.96 736.36C978.96 737.387 978.785 738.378 978.435 739.335C978.108 740.268 977.56 741.108 976.79 741.855C976.02 742.602 974.993 743.197 973.71 743.64C972.426 744.06 970.851 744.27 968.985 744.27H966.115V754H962.965V729.01H969.58ZM969.3 731.705H966.115V741.575H968.635C970.221 741.575 971.54 741.412 972.59 741.085C973.64 740.735 974.421 740.187 974.935 739.44C975.448 738.693 975.705 737.713 975.705 736.5C975.705 734.89 975.191 733.688 974.165 732.895C973.138 732.102 971.516 731.705 969.3 731.705ZM1005.96 741.47C1005.96 743.407 1005.72 745.168 1005.23 746.755C1004.74 748.318 1004 749.672 1003.02 750.815C1002.06 751.958 1000.86 752.833 999.416 753.44C997.993 754.047 996.336 754.35 994.446 754.35C992.486 754.35 990.783 754.047 989.336 753.44C987.89 752.81 986.688 751.935 985.731 750.815C984.775 749.672 984.063 748.307 983.596 746.72C983.13 745.133 982.896 743.372 982.896 741.435C982.896 738.868 983.316 736.628 984.156 734.715C984.996 732.802 986.268 731.308 987.971 730.235C989.698 729.162 991.868 728.625 994.481 728.625C996.978 728.625 999.078 729.162 1000.78 730.235C1002.48 731.285 1003.77 732.778 1004.63 734.715C1005.52 736.628 1005.96 738.88 1005.96 741.47ZM986.221 741.47C986.221 743.57 986.513 745.378 987.096 746.895C987.68 748.412 988.578 749.578 989.791 750.395C991.028 751.212 992.58 751.62 994.446 751.62C996.336 751.62 997.876 751.212 999.066 750.395C1000.28 749.578 1001.18 748.412 1001.76 746.895C1002.34 745.378 1002.64 743.57 1002.64 741.47C1002.64 738.32 1001.98 735.858 1000.68 734.085C999.37 732.288 997.305 731.39 994.481 731.39C992.591 731.39 991.028 731.798 989.791 732.615C988.578 733.408 987.68 734.563 987.096 736.08C986.513 737.573 986.221 739.37 986.221 741.47ZM1018.64 729.01C1020.72 729.01 1022.45 729.208 1023.85 729.605C1025.28 730.002 1026.34 730.655 1027.04 731.565C1027.76 732.475 1028.12 733.688 1028.12 735.205C1028.12 736.185 1027.94 737.06 1027.56 737.83C1027.21 738.577 1026.68 739.207 1025.95 739.72C1025.25 740.21 1024.39 740.548 1023.36 740.735V740.91C1024.41 741.073 1025.36 741.377 1026.2 741.82C1027.06 742.263 1027.74 742.893 1028.23 743.71C1028.72 744.527 1028.96 745.588 1028.96 746.895C1028.96 748.412 1028.61 749.707 1027.91 750.78C1027.21 751.83 1026.21 752.635 1024.9 753.195C1023.62 753.732 1022.08 754 1020.28 754H1011.5V729.01H1018.64ZM1019.27 739.65C1021.42 739.65 1022.89 739.312 1023.68 738.635C1024.47 737.935 1024.87 736.908 1024.87 735.555C1024.87 734.178 1024.38 733.198 1023.4 732.615C1022.44 732.008 1020.9 731.705 1018.78 731.705H1014.65V739.65H1019.27ZM1014.65 742.275V751.34H1019.69C1021.91 751.34 1023.45 750.908 1024.31 750.045C1025.17 749.182 1025.6 748.05 1025.6 746.65C1025.6 745.763 1025.41 744.993 1025.01 744.34C1024.64 743.687 1023.99 743.185 1023.08 742.835C1022.2 742.462 1020.98 742.275 1019.44 742.275H1014.65ZM1049.94 754L1046.93 746.265H1037.03L1034.05 754H1030.87L1040.63 728.905H1043.47L1053.2 754H1049.94ZM1043.19 735.905C1043.12 735.718 1043 735.38 1042.84 734.89C1042.68 734.4 1042.51 733.898 1042.35 733.385C1042.21 732.848 1042.09 732.44 1042 732.16C1041.88 732.627 1041.75 733.105 1041.61 733.595C1041.5 734.062 1041.37 734.493 1041.23 734.89C1041.11 735.287 1041.01 735.625 1040.91 735.905L1038.08 743.465H1045.99L1043.19 735.905ZM1062.07 754H1058.92V731.775H1051.11V729.01H1069.84V731.775H1062.07V754ZM1073.6 754V729.01H1076.75V739.58H1081.44C1083.78 739.58 1085.63 739.895 1087.01 740.525C1088.39 741.155 1089.38 742.007 1089.98 743.08C1090.59 744.153 1090.89 745.355 1090.89 746.685C1090.89 748.155 1090.56 749.438 1089.88 750.535C1089.23 751.632 1088.23 752.483 1086.9 753.09C1085.57 753.697 1083.88 754 1081.83 754H1073.6ZM1081.51 751.305C1083.54 751.305 1085.07 750.932 1086.1 750.185C1087.13 749.415 1087.64 748.248 1087.64 746.685C1087.64 745.612 1087.38 744.76 1086.87 744.13C1086.38 743.477 1085.64 743.01 1084.66 742.73C1083.71 742.45 1082.51 742.31 1081.06 742.31H1076.75V751.305H1081.51ZM1106.77 731.425C1105.44 731.425 1104.24 731.658 1103.17 732.125C1102.09 732.568 1101.18 733.233 1100.44 734.12C1099.69 734.983 1099.12 736.045 1098.72 737.305C1098.32 738.542 1098.13 739.942 1098.13 741.505C1098.13 743.558 1098.44 745.343 1099.07 746.86C1099.72 748.377 1100.68 749.543 1101.94 750.36C1103.22 751.177 1104.82 751.585 1106.74 751.585C1107.83 751.585 1108.87 751.492 1109.85 751.305C1110.83 751.118 1111.79 750.885 1112.72 750.605V753.335C1111.79 753.685 1110.82 753.942 1109.82 754.105C1108.84 754.268 1107.66 754.35 1106.28 754.35C1103.74 754.35 1101.61 753.825 1099.91 752.775C1098.21 751.725 1096.92 750.232 1096.06 748.295C1095.22 746.358 1094.8 744.083 1094.8 741.47C1094.8 739.58 1095.06 737.853 1095.57 736.29C1096.11 734.727 1096.88 733.373 1097.88 732.23C1098.91 731.087 1100.17 730.212 1101.66 729.605C1103.15 728.975 1104.87 728.66 1106.81 728.66C1108.09 728.66 1109.33 728.788 1110.52 729.045C1111.71 729.302 1112.77 729.663 1113.7 730.13L1112.44 732.79C1111.67 732.44 1110.81 732.125 1109.85 731.845C1108.92 731.565 1107.89 731.425 1106.77 731.425ZM1125.7 743.64L1119.22 754H1115.55L1122.55 743.08C1121.66 742.777 1120.82 742.357 1120.03 741.82C1119.26 741.283 1118.63 740.548 1118.14 739.615C1117.65 738.682 1117.4 737.48 1117.4 736.01C1117.4 733.747 1118.19 732.02 1119.75 730.83C1121.31 729.617 1123.65 729.01 1126.75 729.01H1133.75V754H1130.6V743.64H1125.7ZM1126.82 731.705C1125.49 731.705 1124.37 731.857 1123.46 732.16C1122.55 732.463 1121.85 732.942 1121.36 733.595C1120.89 734.248 1120.66 735.1 1120.66 736.15C1120.66 737.69 1121.17 738.88 1122.2 739.72C1123.23 740.56 1124.81 740.98 1126.96 740.98H1130.6V731.705H1126.82Z" fill="white"/>
<rect x="696.261" y="515" width="490" height="75.9118" rx="20" transform="rotate(0.0638818 696.261 515)" fill="#E0E0E0"/>
<path d="M713.166 546.107L713.182 531.827L723.902 531.839L723.886 546.119L722.106 546.117L722.12 533.417L714.98 533.409L714.966 546.109L713.166 546.107ZM736.881 540.754C736.88 541.647 736.759 542.44 736.518 543.133C736.291 543.813 735.957 544.393 735.516 544.872C735.089 545.352 734.562 545.718 733.935 545.97C733.322 546.21 732.635 546.329 731.875 546.328C731.168 546.327 730.515 546.206 729.915 545.966C729.316 545.712 728.796 545.345 728.356 544.864C727.917 544.384 727.571 543.803 727.318 543.123C727.079 542.429 726.96 541.636 726.961 540.742C726.962 539.556 727.164 538.556 727.564 537.743C727.965 536.917 728.539 536.291 729.287 535.865C730.034 535.426 730.921 535.207 731.947 535.208C732.921 535.209 733.774 535.43 734.507 535.871C735.253 536.298 735.832 536.926 736.244 537.753C736.67 538.567 736.882 539.567 736.881 540.754ZM728.781 540.745C728.78 541.585 728.886 542.318 729.099 542.945C729.325 543.558 729.671 544.032 730.137 544.366C730.603 544.7 731.196 544.867 731.916 544.868C732.636 544.869 733.23 544.703 733.697 544.37C734.164 544.037 734.505 543.564 734.719 542.951C734.946 542.325 735.06 541.592 735.061 540.752C735.062 539.898 734.95 539.171 734.724 538.571C734.498 537.971 734.151 537.51 733.685 537.19C733.232 536.856 732.639 536.689 731.906 536.688C730.812 536.687 730.019 537.046 729.524 537.765C729.03 538.485 728.782 539.478 728.781 540.745ZM748.293 538.126C748.293 538.793 748.092 539.313 747.692 539.686C747.291 540.058 746.778 540.311 746.151 540.444L746.151 540.524C746.817 540.618 747.397 540.859 747.89 541.246C748.383 541.62 748.629 542.207 748.628 543.007C748.627 543.46 748.54 543.88 748.367 544.266C748.206 544.653 747.952 544.986 747.605 545.265C747.258 545.545 746.812 545.765 746.265 545.924C745.718 546.07 745.058 546.143 744.284 546.142L739.664 546.137L739.676 535.417L744.276 535.422C745.036 535.423 745.716 535.51 746.316 535.684C746.929 535.845 747.409 536.125 747.755 536.526C748.115 536.913 748.294 537.446 748.293 538.126ZM746.808 543.005C746.809 542.391 746.576 541.951 746.109 541.684C745.643 541.417 744.957 541.283 744.05 541.282L741.43 541.279L741.426 544.719L744.086 544.722C744.966 544.723 745.64 544.597 746.106 544.344C746.573 544.078 746.807 543.631 746.808 543.005ZM746.513 538.344C746.514 537.838 746.327 537.471 745.954 537.244C745.595 537.003 745.001 536.883 744.175 536.882L741.435 536.879L741.432 539.819L743.852 539.821C744.718 539.822 745.378 539.703 745.832 539.464C746.286 539.224 746.513 538.851 746.513 538.344ZM758.598 536.918L755.098 536.914L755.088 546.154L753.348 546.152L753.358 536.912L749.898 536.908L749.9 535.428L758.6 535.438L758.598 536.918ZM769.83 540.79C769.829 541.684 769.708 542.477 769.468 543.17C769.24 543.85 768.906 544.429 768.466 544.909C768.038 545.388 767.511 545.754 766.884 546.007C766.271 546.246 765.584 546.366 764.824 546.365C764.117 546.364 763.464 546.243 762.864 546.003C762.265 545.749 761.745 545.381 761.306 544.901C760.866 544.42 760.52 543.84 760.268 543.16C760.028 542.466 759.909 541.673 759.91 540.779C759.912 539.593 760.113 538.593 760.514 537.78C760.915 536.954 761.489 536.328 762.236 535.902C762.983 535.463 763.87 535.244 764.896 535.245C765.87 535.246 766.723 535.467 767.456 535.908C768.202 536.335 768.781 536.962 769.194 537.79C769.619 538.603 769.832 539.604 769.83 540.79ZM761.73 540.781C761.729 541.621 761.835 542.355 762.048 542.982C762.274 543.595 762.62 544.069 763.086 544.403C763.553 544.737 764.146 544.904 764.866 544.905C765.586 544.906 766.179 544.74 766.646 544.407C767.113 544.074 767.454 543.601 767.668 542.988C767.895 542.361 768.009 541.628 768.01 540.788C768.011 539.935 767.899 539.208 767.673 538.608C767.447 538.008 767.101 537.547 766.634 537.227C766.181 536.893 765.588 536.726 764.855 536.725C763.761 536.724 762.968 537.083 762.474 537.802C761.979 538.522 761.732 539.515 761.73 540.781ZM777.726 535.259C779.046 535.261 780.105 535.722 780.904 536.643C781.717 537.564 782.122 538.951 782.12 540.804C782.118 542.017 781.93 543.044 781.556 543.883C781.195 544.71 780.681 545.336 780.014 545.762C779.36 546.174 778.587 546.38 777.693 546.379C777.147 546.378 776.66 546.305 776.234 546.157C775.807 546.01 775.441 545.823 775.134 545.596C774.841 545.356 774.588 545.096 774.375 544.815L774.255 544.815C774.282 545.042 774.308 545.329 774.334 545.675C774.36 546.022 774.373 546.322 774.373 546.575L774.368 550.975L772.608 550.973L772.626 535.453L774.066 535.455L774.304 536.915L774.384 536.915C774.598 536.609 774.851 536.329 775.145 536.076C775.452 535.823 775.812 535.624 776.226 535.477C776.652 535.331 777.152 535.258 777.726 535.259ZM777.404 536.739C776.684 536.738 776.104 536.877 775.664 537.157C775.223 537.423 774.903 537.829 774.702 538.376C774.502 538.922 774.394 539.615 774.38 540.455L774.38 540.795C774.379 541.675 774.471 542.422 774.657 543.036C774.843 543.649 775.156 544.116 775.596 544.437C776.049 544.757 776.662 544.918 777.435 544.919C778.088 544.919 778.622 544.74 779.036 544.381C779.463 544.021 779.777 543.535 779.977 542.922C780.191 542.295 780.299 541.582 780.3 540.782C780.301 539.555 780.062 538.575 779.583 537.841C779.117 537.107 778.391 536.74 777.404 536.739ZM786.583 542.009C786.583 542.129 786.576 542.302 786.562 542.529C786.562 542.742 786.555 542.976 786.542 543.229C786.528 543.469 786.514 543.702 786.501 543.929C786.487 544.142 786.474 544.316 786.46 544.449L792.21 535.475L794.37 535.478L794.358 546.198L792.718 546.196L792.725 539.876C792.726 539.662 792.726 539.382 792.726 539.036C792.74 538.689 792.754 538.349 792.767 538.016C792.781 537.669 792.795 537.409 792.808 537.236L787.098 546.19L784.918 546.187L784.93 535.467L786.59 535.469L786.583 542.009ZM805.18 536.97L801.68 536.966L801.67 546.206L799.93 546.204L799.94 536.964L796.48 536.96L796.482 535.48L805.182 535.49L805.18 536.97ZM811.238 535.296C812.158 535.297 812.945 535.498 813.598 535.899C814.264 536.3 814.77 536.867 815.116 537.601C815.475 538.321 815.654 539.168 815.653 540.141L815.652 541.201L808.312 541.193C808.337 542.407 808.643 543.334 809.229 543.974C809.828 544.602 810.661 544.916 811.728 544.917C812.408 544.918 813.008 544.858 813.528 544.739C814.061 544.606 814.608 544.42 815.169 544.181L815.167 545.721C814.62 545.96 814.08 546.133 813.546 546.239C813.013 546.358 812.379 546.418 811.646 546.417C810.633 546.416 809.733 546.208 808.947 545.794C808.174 545.38 807.568 544.766 807.129 543.952C806.703 543.125 806.491 542.118 806.492 540.931C806.493 539.758 806.688 538.751 807.076 537.912C807.476 537.072 808.031 536.426 808.738 535.974C809.458 535.521 810.292 535.295 811.238 535.296ZM811.217 536.736C810.377 536.735 809.71 537.008 809.216 537.554C808.735 538.087 808.448 538.833 808.353 539.793L813.813 539.799C813.814 539.186 813.721 538.653 813.535 538.199C813.349 537.745 813.063 537.392 812.676 537.138C812.303 536.871 811.817 536.737 811.217 536.736ZM832.447 535.52L832.435 546.24L830.675 546.238L830.686 537.018L825.146 537.012L825.135 546.232L823.375 546.23L823.387 535.51L832.447 535.52ZM839.928 535.348C841.235 535.35 842.201 535.638 842.827 536.212C843.453 536.786 843.765 537.699 843.764 538.953L843.756 546.253L842.476 546.251L842.137 544.731L842.057 544.731C841.75 545.117 841.43 545.443 841.096 545.71C840.776 545.963 840.403 546.149 839.976 546.268C839.562 546.388 839.056 546.447 838.456 546.447C837.816 546.446 837.236 546.332 836.716 546.105C836.21 545.878 835.81 545.531 835.517 545.064C835.224 544.583 835.078 543.983 835.079 543.263C835.08 542.196 835.501 541.377 836.342 540.804C837.183 540.219 838.476 539.9 840.223 539.849L842.043 539.791L842.044 539.151C842.045 538.257 841.852 537.637 841.466 537.29C841.08 536.943 840.533 536.769 839.826 536.768C839.266 536.768 838.733 536.854 838.226 537.027C837.719 537.186 837.246 537.372 836.805 537.585L836.267 536.264C836.734 536.012 837.287 535.799 837.928 535.626C838.568 535.44 839.235 535.348 839.928 535.348ZM840.442 541.069C839.108 541.121 838.181 541.333 837.661 541.706C837.154 542.079 836.9 542.605 836.899 543.285C836.898 543.885 837.078 544.325 837.438 544.606C837.811 544.886 838.284 545.027 838.857 545.027C839.764 545.028 840.517 544.782 841.118 544.29C841.719 543.784 842.019 543.011 842.021 541.971L842.022 541.011L840.442 541.069ZM852.179 535.342C853.499 535.344 854.558 535.805 855.357 536.726C856.17 537.647 856.575 539.034 856.573 540.887C856.571 542.1 856.384 543.127 856.009 543.966C855.648 544.793 855.134 545.419 854.467 545.845C853.813 546.257 853.04 546.463 852.147 546.462C851.6 546.461 851.113 546.388 850.687 546.24C850.26 546.093 849.894 545.906 849.587 545.679C849.294 545.439 849.041 545.179 848.828 544.898L848.708 544.898C848.735 545.125 848.761 545.412 848.787 545.758C848.814 546.105 848.827 546.405 848.826 546.658L848.821 551.058L847.061 551.056L847.079 535.536L848.519 535.538L848.757 536.998L848.837 536.998C849.051 536.692 849.304 536.412 849.598 536.159C849.905 535.906 850.265 535.707 850.679 535.56C851.105 535.414 851.606 535.341 852.179 535.342ZM851.857 536.822C851.137 536.821 850.557 536.96 850.117 537.24C849.676 537.506 849.356 537.912 849.155 538.459C848.955 539.005 848.847 539.698 848.833 540.538L848.833 540.878C848.832 541.758 848.924 542.505 849.11 543.119C849.296 543.732 849.609 544.199 850.049 544.52C850.502 544.84 851.115 545.001 851.888 545.002C852.541 545.002 853.075 544.823 853.489 544.464C853.916 544.104 854.23 543.618 854.43 543.005C854.644 542.378 854.752 541.665 854.753 540.865C854.754 539.638 854.515 538.658 854.036 537.924C853.57 537.19 852.844 536.823 851.857 536.822ZM868.697 540.901C868.696 541.794 868.576 542.587 868.335 543.28C868.107 543.96 867.773 544.539 867.333 545.019C866.906 545.499 866.379 545.865 865.752 546.117C865.138 546.357 864.451 546.476 863.691 546.475C862.985 546.474 862.331 546.353 861.732 546.113C861.132 545.859 860.612 545.491 860.173 545.011C859.733 544.531 859.387 543.95 859.135 543.27C858.896 542.576 858.776 541.783 858.777 540.889C858.779 539.703 858.98 538.703 859.381 537.89C859.782 537.064 860.356 536.438 861.103 536.012C861.85 535.573 862.737 535.354 863.764 535.355C864.737 535.356 865.59 535.577 866.323 536.018C867.069 536.445 867.648 537.073 868.061 537.9C868.487 538.714 868.699 539.714 868.697 540.901ZM860.597 540.891C860.596 541.731 860.702 542.465 860.915 543.092C861.141 543.705 861.487 544.179 861.953 544.513C862.42 544.847 863.013 545.014 863.733 545.015C864.453 545.016 865.046 544.85 865.513 544.517C865.98 544.184 866.321 543.711 866.535 543.098C866.762 542.472 866.876 541.738 866.877 540.898C866.878 540.045 866.766 539.318 866.54 538.718C866.314 538.118 865.968 537.657 865.501 537.337C865.048 537.003 864.455 536.836 863.722 536.835C862.629 536.834 861.835 537.193 861.341 537.912C860.847 538.632 860.599 539.625 860.597 540.891ZM879.641 546.293L877.861 546.291L877.871 537.031L874.711 537.027C874.576 538.72 874.408 540.167 874.206 541.367C874.005 542.553 873.751 543.519 873.443 544.266C873.136 545.012 872.768 545.558 872.341 545.905C871.914 546.251 871.414 546.424 870.841 546.423C870.667 546.423 870.494 546.409 870.321 546.382C870.161 546.369 870.027 546.335 869.921 546.282L869.922 544.962C870.002 544.989 870.089 545.009 870.182 545.022C870.276 545.036 870.369 545.042 870.462 545.042C870.756 545.043 871.022 544.923 871.263 544.683C871.503 544.444 871.717 544.077 871.904 543.584C872.104 543.091 872.285 542.471 872.446 541.725C872.607 540.965 872.748 540.072 872.869 539.045C872.99 538.019 873.098 536.859 873.193 535.566L879.653 535.573L879.641 546.293ZM887.99 539.982C888.924 539.983 889.697 540.097 890.31 540.325C890.923 540.552 891.383 540.892 891.689 541.346C892.008 541.786 892.168 542.347 892.167 543.027C892.166 543.693 892.012 544.273 891.705 544.766C891.411 545.259 890.951 545.639 890.324 545.905C889.697 546.171 888.89 546.303 887.903 546.302L883.043 546.297L883.055 535.577L884.815 535.578L884.81 539.978L887.99 539.982ZM890.407 543.125C890.408 542.471 890.175 542.031 889.708 541.804C889.255 541.563 888.615 541.443 887.789 541.442L884.809 541.438L884.805 544.878L887.825 544.882C888.572 544.883 889.185 544.75 889.665 544.484C890.159 544.218 890.406 543.765 890.407 543.125Z" fill="black"/>
<rect x="696.261" y="402" width="490" height="75.9118" rx="20" transform="rotate(0.0638818 696.261 402)" fill="#E0E0E0"/>
<path d="M713.166 433.107L713.182 418.827L723.902 418.839L723.886 433.119L722.106 433.117L722.12 420.417L714.98 420.409L714.966 433.109L713.166 433.107ZM731.627 422.228C732.934 422.229 733.9 422.517 734.526 423.091C735.152 423.665 735.465 424.579 735.463 425.832L735.455 433.132L734.175 433.131L733.837 431.61L733.757 431.61C733.45 431.996 733.129 432.323 732.796 432.589C732.475 432.842 732.102 433.028 731.675 433.148C731.262 433.267 730.755 433.327 730.155 433.326C729.515 433.325 728.935 433.211 728.415 432.984C727.909 432.757 727.509 432.41 727.216 431.943C726.924 431.462 726.778 430.862 726.778 430.142C726.78 429.076 727.201 428.256 728.041 427.684C728.882 427.098 730.175 426.779 731.922 426.728L733.742 426.67L733.743 426.03C733.744 425.137 733.551 424.516 733.165 424.169C732.779 423.822 732.232 423.648 731.526 423.648C730.966 423.647 730.432 423.733 729.925 423.906C729.419 424.065 728.945 424.251 728.505 424.464L727.966 423.144C728.433 422.891 728.987 422.678 729.627 422.505C730.267 422.319 730.934 422.227 731.627 422.228ZM732.141 427.948C730.807 428 729.881 428.212 729.36 428.585C728.853 428.958 728.599 429.484 728.598 430.164C728.598 430.764 728.777 431.205 729.137 431.485C729.51 431.765 729.983 431.906 730.556 431.906C731.463 431.908 732.217 431.662 732.817 431.169C733.418 430.663 733.719 429.89 733.72 428.85L733.721 427.89L732.141 427.948ZM743.878 422.221C745.198 422.223 746.258 422.684 747.057 423.605C747.869 424.526 748.274 425.913 748.272 427.766C748.271 428.98 748.083 430.006 747.709 430.846C747.348 431.672 746.834 432.298 746.166 432.724C745.513 433.137 744.739 433.342 743.846 433.341C743.299 433.341 742.813 433.267 742.386 433.12C741.96 432.973 741.593 432.785 741.287 432.558C740.994 432.318 740.741 432.058 740.528 431.778L740.408 431.777C740.434 432.004 740.46 432.291 740.487 432.638C740.513 432.984 740.526 433.284 740.526 433.538L740.521 437.938L738.761 437.936L738.778 422.416L740.218 422.417L740.456 423.878L740.536 423.878C740.75 423.571 741.004 423.291 741.297 423.038C741.604 422.785 741.964 422.586 742.378 422.44C742.805 422.293 743.305 422.221 743.878 422.221ZM743.557 423.701C742.837 423.7 742.256 423.84 741.816 424.119C741.376 424.385 741.055 424.792 740.855 425.338C740.654 425.884 740.547 426.578 740.532 427.418L740.532 427.758C740.531 428.638 740.624 429.384 740.81 429.998C740.996 430.611 741.308 431.078 741.748 431.399C742.201 431.719 742.814 431.88 743.587 431.881C744.241 431.882 744.774 431.702 745.188 431.343C745.615 430.983 745.929 430.497 746.13 429.884C746.344 429.257 746.451 428.544 746.452 427.744C746.453 426.518 746.214 425.537 745.735 424.803C745.269 424.07 744.543 423.702 743.557 423.701ZM760.397 427.78C760.396 428.673 760.275 429.466 760.034 430.159C759.807 430.839 759.473 431.419 759.032 431.898C758.605 432.378 758.078 432.744 757.451 432.996C756.837 433.236 756.15 433.355 755.39 433.354C754.684 433.353 754.031 433.233 753.431 432.992C752.831 432.738 752.312 432.371 751.872 431.89C751.433 431.41 751.087 430.829 750.834 430.149C750.595 429.455 750.476 428.662 750.477 427.769C750.478 426.582 750.679 425.582 751.08 424.769C751.481 423.943 752.055 423.317 752.802 422.891C753.549 422.452 754.436 422.233 755.463 422.234C756.436 422.235 757.289 422.456 758.022 422.897C758.768 423.325 759.348 423.952 759.76 424.779C760.186 425.593 760.398 426.593 760.397 427.78ZM752.297 427.771C752.296 428.611 752.402 429.344 752.614 429.971C752.84 430.585 753.186 431.058 753.653 431.392C754.119 431.726 754.712 431.893 755.432 431.894C756.152 431.895 756.746 431.729 757.213 431.396C757.68 431.063 758.02 430.59 758.234 429.977C758.462 429.351 758.576 428.618 758.577 427.778C758.578 426.924 758.465 426.198 758.239 425.597C758.013 424.997 757.667 424.537 757.201 424.216C756.748 423.882 756.155 423.715 755.421 423.714C754.328 423.713 753.534 424.072 753.04 424.792C752.546 425.511 752.298 426.504 752.297 427.771ZM771.34 433.172L769.56 433.17L769.57 423.91L766.41 423.906C766.275 425.6 766.107 427.046 765.906 428.246C765.704 429.432 765.45 430.399 765.142 431.145C764.835 431.891 764.468 432.438 764.04 432.784C763.613 433.13 763.113 433.303 762.54 433.302C762.367 433.302 762.193 433.288 762.02 433.262C761.86 433.248 761.727 433.215 761.62 433.161L761.622 431.841C761.702 431.868 761.788 431.888 761.881 431.901C761.975 431.915 762.068 431.922 762.161 431.922C762.455 431.922 762.722 431.802 762.962 431.563C763.202 431.323 763.416 430.956 763.603 430.463C763.804 429.97 763.984 429.35 764.145 428.604C764.306 427.844 764.447 426.951 764.568 425.924C764.689 424.898 764.797 423.738 764.892 422.445L771.352 422.452L771.34 433.172ZM779.69 426.861C780.623 426.862 781.396 426.977 782.009 427.204C782.622 427.431 783.082 427.772 783.388 428.225C783.708 428.666 783.867 429.226 783.866 429.906C783.865 430.573 783.711 431.152 783.404 431.645C783.11 432.138 782.65 432.518 782.023 432.784C781.396 433.05 780.589 433.182 779.603 433.181L774.743 433.176L774.755 422.456L776.515 422.458L776.51 426.858L779.69 426.861ZM782.106 430.004C782.107 429.351 781.874 428.91 781.408 428.683C780.955 428.443 780.315 428.322 779.488 428.321L776.508 428.318L776.504 431.758L779.524 431.761C780.271 431.762 780.884 431.629 781.365 431.363C781.858 431.097 782.105 430.644 782.106 430.004Z" fill="black"/>
<path d="M807.666 886.128C807.154 887.264 806.634 888.216 806.106 888.984C805.594 889.736 804.986 890.304 804.282 890.688C803.578 891.056 802.682 891.24 801.594 891.24C801.146 891.24 800.722 891.208 800.322 891.144C799.938 891.08 799.586 890.992 799.266 890.88V888.744C799.586 888.888 799.93 889.008 800.298 889.104C800.666 889.184 801.05 889.224 801.45 889.224C802.042 889.224 802.546 889.144 802.962 888.984C803.394 888.808 803.77 888.528 804.09 888.144C804.426 887.76 804.738 887.248 805.026 886.608L798.426 873.864H800.802L805.578 883.296C805.642 883.408 805.706 883.544 805.77 883.704C805.834 883.848 805.898 884 805.962 884.16C806.042 884.32 806.106 884.472 806.154 884.616H806.25C806.298 884.504 806.346 884.376 806.394 884.232C806.458 884.072 806.514 883.92 806.562 883.776C806.626 883.616 806.682 883.48 806.73 883.368L810.858 873.864H813.138L807.666 886.128ZM834.978 878.136V891H833.082V882.792C833.082 882.456 833.09 882.104 833.106 881.736C833.138 881.368 833.17 881.008 833.202 880.656H833.13L828.93 891H827.154L823.074 880.656H823.002C823.034 881.008 823.05 881.368 823.05 881.736C823.066 882.104 823.074 882.48 823.074 882.864V891H821.178V878.136H823.986L828.042 888.48L832.17 878.136H834.978ZM844.052 877.896C845.156 877.896 846.1 878.136 846.884 878.616C847.684 879.096 848.292 879.776 848.708 880.656C849.14 881.52 849.356 882.536 849.356 883.704V884.976H840.548C840.58 886.432 840.948 887.544 841.652 888.312C842.372 889.064 843.372 889.44 844.652 889.44C845.468 889.44 846.188 889.368 846.812 889.224C847.452 889.064 848.108 888.84 848.78 888.552V890.4C848.124 890.688 847.476 890.896 846.836 891.024C846.196 891.168 845.436 891.24 844.556 891.24C843.34 891.24 842.26 890.992 841.316 890.496C840.388 890 839.66 889.264 839.132 888.288C838.62 887.296 838.364 886.088 838.364 884.664C838.364 883.256 838.596 882.048 839.06 881.04C839.54 880.032 840.204 879.256 841.052 878.712C841.916 878.168 842.916 877.896 844.052 877.896ZM844.028 879.624C843.02 879.624 842.22 879.952 841.628 880.608C841.052 881.248 840.708 882.144 840.596 883.296H847.148C847.148 882.56 847.036 881.92 846.812 881.376C846.588 880.832 846.244 880.408 845.78 880.104C845.332 879.784 844.748 879.624 844.028 879.624ZM854.743 878.136V883.488H861.727V878.136H863.839V891H861.727V885.264H854.743V891H852.631V878.136H854.743ZM868.705 891H866.257L869.929 885.6C869.433 885.472 868.953 885.272 868.489 885C868.025 884.712 867.649 884.32 867.361 883.824C867.073 883.312 866.929 882.68 866.929 881.928C866.929 880.696 867.345 879.76 868.177 879.12C869.009 878.464 870.113 878.136 871.489 878.136H877.249V891H875.137V885.888H872.017L868.705 891ZM868.969 881.952C868.969 882.688 869.241 883.24 869.785 883.608C870.345 883.96 871.121 884.136 872.113 884.136H875.137V879.888H871.705C870.729 879.888 870.025 880.08 869.593 880.464C869.177 880.848 868.969 881.344 868.969 881.952ZM885.303 878.136H887.559L890.343 885.456C890.503 885.888 890.647 886.304 890.775 886.704C890.919 887.104 891.047 887.496 891.159 887.88C891.271 888.248 891.359 888.608 891.423 888.96H891.519C891.615 888.56 891.767 888.04 891.975 887.4C892.183 886.744 892.399 886.088 892.623 885.432L895.239 878.136H897.519L891.975 892.776C891.671 893.576 891.311 894.272 890.895 894.864C890.495 895.472 889.999 895.936 889.407 896.256C888.831 896.592 888.127 896.76 887.295 896.76C886.911 896.76 886.575 896.736 886.287 896.688C885.999 896.656 885.751 896.616 885.543 896.568V894.888C885.719 894.92 885.927 894.952 886.167 894.984C886.423 895.016 886.687 895.032 886.959 895.032C887.455 895.032 887.879 894.936 888.231 894.744C888.599 894.568 888.911 894.304 889.167 893.952C889.423 893.616 889.639 893.216 889.815 892.752L890.487 891.048L885.303 878.136ZM914.985 878.136L909.681 884.376L915.441 891H913.041L907.473 884.472V891H905.505V884.472L899.937 891H897.537L903.297 884.376L897.993 878.136H900.297L905.505 884.376V878.136H907.473V884.376L912.705 878.136H914.985ZM922.052 877.896C923.156 877.896 924.1 878.136 924.884 878.616C925.684 879.096 926.292 879.776 926.708 880.656C927.14 881.52 927.356 882.536 927.356 883.704V884.976H918.548C918.58 886.432 918.948 887.544 919.652 888.312C920.372 889.064 921.372 889.44 922.652 889.44C923.468 889.44 924.188 889.368 924.812 889.224C925.452 889.064 926.108 888.84 926.78 888.552V890.4C926.124 890.688 925.476 890.896 924.836 891.024C924.196 891.168 923.436 891.24 922.556 891.24C921.34 891.24 920.26 890.992 919.316 890.496C918.388 890 917.66 889.264 917.132 888.288C916.62 887.296 916.364 886.088 916.364 884.664C916.364 883.256 916.596 882.048 917.06 881.04C917.54 880.032 918.204 879.256 919.052 878.712C919.916 878.168 920.916 877.896 922.052 877.896ZM922.028 879.624C921.02 879.624 920.22 879.952 919.628 880.608C919.052 881.248 918.708 882.144 918.596 883.296H925.148C925.148 882.56 925.036 881.92 924.812 881.376C924.588 880.832 924.244 880.408 923.78 880.104C923.332 879.784 922.748 879.624 922.028 879.624Z" fill="black"/>
<path d="M941.599 877.896C942.703 877.896 943.647 878.136 944.431 878.616C945.231 879.096 945.839 879.776 946.255 880.656C946.687 881.52 946.903 882.536 946.903 883.704V884.976H938.095C938.127 886.432 938.495 887.544 939.199 888.312C939.919 889.064 940.919 889.44 942.199 889.44C943.015 889.44 943.735 889.368 944.359 889.224C944.999 889.064 945.655 888.84 946.327 888.552V890.4C945.671 890.688 945.023 890.896 944.383 891.024C943.743 891.168 942.983 891.24 942.103 891.24C940.887 891.24 939.807 890.992 938.863 890.496C937.935 890 937.207 889.264 936.679 888.288C936.167 887.296 935.911 886.088 935.911 884.664C935.911 883.256 936.143 882.048 936.607 881.04C937.087 880.032 937.751 879.256 938.599 878.712C939.463 878.168 940.463 877.896 941.599 877.896ZM941.575 879.624C940.567 879.624 939.767 879.952 939.175 880.608C938.599 881.248 938.255 882.144 938.143 883.296H944.695C944.695 882.56 944.583 881.92 944.359 881.376C944.135 880.832 943.791 880.408 943.327 880.104C942.879 879.784 942.295 879.624 941.575 879.624ZM955.338 891.24C954.202 891.24 953.186 891.008 952.29 890.544C951.41 890.08 950.714 889.36 950.202 888.384C949.706 887.408 949.458 886.16 949.458 884.64C949.458 883.056 949.722 881.768 950.25 880.776C950.778 879.784 951.49 879.056 952.386 878.592C953.298 878.128 954.33 877.896 955.482 877.896C956.138 877.896 956.77 877.968 957.378 878.112C957.986 878.24 958.482 878.4 958.866 878.592L958.218 880.344C957.834 880.2 957.386 880.064 956.874 879.936C956.362 879.808 955.882 879.744 955.434 879.744C954.57 879.744 953.858 879.928 953.298 880.296C952.738 880.664 952.322 881.208 952.05 881.928C951.778 882.648 951.642 883.544 951.642 884.616C951.642 885.64 951.778 886.512 952.05 887.232C952.322 887.952 952.73 888.496 953.274 888.864C953.818 889.232 954.498 889.416 955.314 889.416C956.018 889.416 956.634 889.344 957.162 889.2C957.706 889.056 958.202 888.88 958.65 888.672V890.544C958.218 890.768 957.738 890.936 957.21 891.048C956.698 891.176 956.074 891.24 955.338 891.24ZM970.589 879.912H966.389V891H964.301V879.912H960.149V878.136H970.589V879.912ZM979.051 883.416C980.171 883.416 981.099 883.552 981.835 883.824C982.571 884.096 983.123 884.504 983.491 885.048C983.875 885.576 984.067 886.248 984.067 887.064C984.067 887.864 983.883 888.56 983.515 889.152C983.163 889.744 982.611 890.2 981.859 890.52C981.107 890.84 980.139 891 978.955 891H973.123V878.136H975.235V883.416H979.051ZM981.955 887.184C981.955 886.4 981.675 885.872 981.115 885.6C980.571 885.312 979.803 885.168 978.811 885.168H975.235V889.296H978.859C979.755 889.296 980.491 889.136 981.067 888.816C981.659 888.496 981.955 887.952 981.955 887.184ZM998.245 877.92C999.813 877.92 1000.97 878.264 1001.73 878.952C1002.48 879.64 1002.85 880.736 1002.85 882.24V891H1001.32L1000.91 889.176H1000.81C1000.45 889.64 1000.06 890.032 999.661 890.352C999.277 890.656 998.829 890.88 998.317 891.024C997.821 891.168 997.213 891.24 996.493 891.24C995.725 891.24 995.029 891.104 994.405 890.832C993.797 890.56 993.317 890.144 992.965 889.584C992.613 889.008 992.437 888.288 992.437 887.424C992.437 886.144 992.941 885.16 993.949 884.472C994.957 883.768 996.509 883.384 998.605 883.32L1000.79 883.248V882.48C1000.79 881.408 1000.56 880.664 1000.09 880.248C999.629 879.832 998.973 879.624 998.125 879.624C997.453 879.624 996.813 879.728 996.205 879.936C995.597 880.128 995.029 880.352 994.501 880.608L993.853 879.024C994.413 878.72 995.077 878.464 995.845 878.256C996.613 878.032 997.413 877.92 998.245 877.92ZM998.869 884.784C997.269 884.848 996.157 885.104 995.533 885.552C994.925 886 994.621 886.632 994.621 887.448C994.621 888.168 994.837 888.696 995.269 889.032C995.717 889.368 996.285 889.536 996.973 889.536C998.061 889.536 998.965 889.24 999.685 888.648C1000.41 888.04 1000.77 887.112 1000.77 885.864V884.712L998.869 884.784ZM1014.43 878.136H1016.74L1011.24 884.328L1017.19 891H1014.75L1008.94 884.472V891H1006.83V878.136H1008.94V884.376L1014.43 878.136ZM1027.14 878.136H1029.44L1023.95 884.328L1029.9 891H1027.45L1021.64 884.472V891H1019.53V878.136H1021.64V884.376L1027.14 878.136ZM1037.1 877.92C1038.67 877.92 1039.83 878.264 1040.58 878.952C1041.34 879.64 1041.71 880.736 1041.71 882.24V891H1040.18L1039.77 889.176H1039.67C1039.3 889.64 1038.92 890.032 1038.52 890.352C1038.14 890.656 1037.69 890.88 1037.18 891.024C1036.68 891.168 1036.07 891.24 1035.35 891.24C1034.58 891.24 1033.89 891.104 1033.26 890.832C1032.66 890.56 1032.18 890.144 1031.82 889.584C1031.47 889.008 1031.3 888.288 1031.3 887.424C1031.3 886.144 1031.8 885.16 1032.81 884.472C1033.82 883.768 1035.37 883.384 1037.46 883.32L1039.65 883.248V882.48C1039.65 881.408 1039.42 880.664 1038.95 880.248C1038.49 879.832 1037.83 879.624 1036.98 879.624C1036.31 879.624 1035.67 879.728 1035.06 879.936C1034.46 880.128 1033.89 880.352 1033.36 880.608L1032.71 879.024C1033.27 878.72 1033.94 878.464 1034.7 878.256C1035.47 878.032 1036.27 877.92 1037.1 877.92ZM1037.73 884.784C1036.13 884.848 1035.02 885.104 1034.39 885.552C1033.78 886 1033.48 886.632 1033.48 887.448C1033.48 888.168 1033.7 888.696 1034.13 889.032C1034.58 889.368 1035.14 889.536 1035.83 889.536C1036.92 889.536 1037.82 889.24 1038.54 888.648C1039.26 888.04 1039.62 887.112 1039.62 885.864V884.712L1037.73 884.784ZM1043.67 878.136H1045.93L1048.71 885.456C1048.87 885.888 1049.01 886.304 1049.14 886.704C1049.29 887.104 1049.41 887.496 1049.53 887.88C1049.64 888.248 1049.73 888.608 1049.79 888.96H1049.89C1049.98 888.56 1050.13 888.04 1050.34 887.4C1050.55 886.744 1050.77 886.088 1050.99 885.432L1053.61 878.136H1055.89L1050.34 892.776C1050.04 893.576 1049.68 894.272 1049.26 894.864C1048.86 895.472 1048.37 895.936 1047.77 896.256C1047.2 896.592 1046.49 896.76 1045.66 896.76C1045.28 896.76 1044.94 896.736 1044.65 896.688C1044.37 896.656 1044.12 896.616 1043.91 896.568V894.888C1044.09 894.92 1044.29 894.952 1044.53 894.984C1044.79 895.016 1045.05 895.032 1045.33 895.032C1045.82 895.032 1046.25 894.936 1046.6 894.744C1046.97 894.568 1047.28 894.304 1047.53 893.952C1047.79 893.616 1048.01 893.216 1048.18 892.752L1048.85 891.048L1043.67 878.136ZM1060.03 878.136V883.488H1067.02V878.136H1069.13V891H1067.02V885.264H1060.03V891H1057.92V878.136H1060.03ZM1082.08 879.912H1077.88V891H1075.79V879.912H1071.64V878.136H1082.08V879.912Z" fill="#128D2D"/>
</svg>
